<svg xmlns="http://www.w3.org/2000/svg" xmlns:xlink="http://www.w3.org/1999/xlink" width="1080" zoomAndPan="magnify" viewBox="0 0 810 809.999993" height="1080" preserveAspectRatio="xMidYMid meet" version="1.0"><defs><clipPath id="4a6d6557ea"><path d="M 216 125.550781 L 810 125.550781 L 810 423 L 216 423 Z M 216 125.550781 " clip-rule="nonzero"/></clipPath><clipPath id="dd84604aab"><path d="M 171 677 L 197 677 L 197 684.300781 L 171 684.300781 Z M 171 677 " clip-rule="nonzero"/></clipPath><clipPath id="27fd52ee58"><path d="M 381 125.550781 L 810 125.550781 L 810 423 L 381 423 Z M 381 125.550781 " clip-rule="nonzero"/></clipPath><clipPath id="a893efe814"><path d="M 171 677 L 197 677 L 197 684.300781 L 171 684.300781 Z M 171 677 " clip-rule="nonzero"/></clipPath></defs><g clip-path="url(#4a6d6557ea)"><path fill="#fbc04f" d="M 381.964844 240.300781 L 472.886719 422.445312 L 571.738281 349.375 L 476.382812 286.445312 L 637.371094 392.6875 L 809.996094 125.625 L 216.179688 167.195312 L 381.964844 240.300781 " fill-opacity="1" fill-rule="nonzero"/></g><path fill="#fbc04f" d="M 460.199219 443.40625 C 457.546875 445.058594 454.890625 446.878906 452.3125 448.816406 C 450.949219 449.84375 450.671875 451.785156 451.703125 453.148438 C 452.308594 453.957031 453.238281 454.386719 454.175781 454.386719 C 454.824219 454.386719 455.480469 454.179688 456.035156 453.761719 C 458.464844 451.9375 460.96875 450.222656 463.46875 448.664062 C 464.917969 447.765625 465.367188 445.855469 464.464844 444.402344 C 463.5625 442.953125 461.65625 442.503906 460.199219 443.40625 " fill-opacity="1" fill-rule="nonzero"/><path fill="#fbc04f" d="M 135.578125 623.285156 C 135.257812 621.605469 133.636719 620.519531 131.953125 620.824219 C 125.984375 621.972656 119.890625 622.46875 113.917969 622.234375 C 112.226562 622.261719 110.773438 623.507812 110.707031 625.214844 C 110.644531 626.925781 111.980469 628.359375 113.6875 628.425781 C 114.699219 628.460938 115.714844 628.480469 116.734375 628.480469 C 122.1875 628.476562 127.703125 627.945312 133.121094 626.90625 C 134.800781 626.585938 135.902344 624.960938 135.578125 623.285156 " fill-opacity="1" fill-rule="nonzero"/><g clip-path="url(#dd84604aab)"><path fill="#fbc04f" d="M 193.003906 677.515625 C 186.746094 678.105469 180.578125 678.199219 174.707031 677.777344 C 173 677.625 171.515625 678.933594 171.394531 680.636719 C 171.269531 682.34375 172.554688 683.824219 174.257812 683.949219 C 176.839844 684.136719 179.496094 684.234375 182.144531 684.234375 C 185.878906 684.226562 189.726562 684.042969 193.582031 683.683594 C 195.285156 683.519531 196.535156 682.011719 196.378906 680.3125 C 196.21875 678.609375 194.726562 677.335938 193.003906 677.515625 " fill-opacity="1" fill-rule="nonzero"/></g><path fill="#fbc04f" d="M 164.324219 605.613281 C 159.578125 609.460938 154.445312 612.710938 149.066406 615.257812 C 147.523438 615.988281 146.863281 617.835938 147.597656 619.378906 C 148.128906 620.5 149.238281 621.152344 150.394531 621.152344 C 150.839844 621.152344 151.292969 621.054688 151.722656 620.847656 C 157.542969 618.089844 163.097656 614.582031 168.226562 610.417969 C 169.554688 609.339844 169.753906 607.390625 168.679688 606.066406 C 167.601562 604.738281 165.652344 604.539062 164.324219 605.613281 " fill-opacity="1" fill-rule="nonzero"/><path fill="#fbc04f" d="M 228.894531 669.34375 C 222.984375 671.441406 217.019531 673.1875 211.167969 674.539062 C 209.503906 674.921875 208.464844 676.585938 208.847656 678.253906 C 209.179688 679.683594 210.453125 680.652344 211.863281 680.652344 C 212.09375 680.652344 212.328125 680.625 212.5625 680.570312 C 218.644531 679.164062 224.835938 677.355469 230.964844 675.179688 C 232.574219 674.605469 233.417969 672.839844 232.847656 671.226562 C 232.273438 669.617188 230.503906 668.769531 228.894531 669.34375 " fill-opacity="1" fill-rule="nonzero"/><path fill="#fbc04f" d="M 193.332031 538.59375 C 191.648438 538.882812 190.515625 540.484375 190.808594 542.171875 C 191.359375 545.375 191.640625 548.65625 191.640625 551.929688 C 191.640625 554.589844 191.453125 557.296875 191.085938 559.976562 C 190.855469 561.671875 192.039062 563.230469 193.734375 563.460938 L 194.15625 563.488281 C 195.683594 563.488281 197.011719 562.367188 197.222656 560.808594 C 197.625 557.859375 197.828125 554.867188 197.828125 551.929688 C 197.832031 548.3125 197.523438 544.667969 196.910156 541.117188 C 196.617188 539.429688 195.023438 538.304688 193.332031 538.59375 " fill-opacity="1" fill-rule="nonzero"/><path fill="#fbc04f" d="M 96.019531 619.550781 C 90.285156 618.023438 84.582031 615.84375 79.070312 613.058594 C 77.542969 612.289062 75.679688 612.902344 74.910156 614.425781 C 74.140625 615.953125 74.753906 617.8125 76.28125 618.582031 C 82.171875 621.5625 88.277344 623.898438 94.425781 625.539062 C 94.695312 625.605469 94.960938 625.640625 95.226562 625.640625 C 96.59375 625.640625 97.847656 624.726562 98.214844 623.339844 C 98.65625 621.6875 97.671875 619.992188 96.019531 619.550781 " fill-opacity="1" fill-rule="nonzero"/><path fill="#fbc04f" d="M 102.328125 608.332031 C 102.023438 606.648438 100.40625 605.539062 98.726562 605.84375 C 97.042969 606.15625 95.929688 607.765625 96.238281 609.445312 C 97.429688 615.953125 99.113281 622.234375 101.242188 628.109375 C 101.699219 629.367188 102.886719 630.148438 104.152344 630.148438 C 104.503906 630.148438 104.859375 630.089844 105.207031 629.964844 C 106.816406 629.382812 107.648438 627.609375 107.066406 626 C 105.050781 620.449219 103.457031 614.5 102.328125 608.332031 " fill-opacity="1" fill-rule="nonzero"/><path fill="#fbc04f" d="M 114.886719 642.40625 C 113.992188 640.945312 112.085938 640.488281 110.628906 641.375 C 109.167969 642.265625 108.710938 644.175781 109.601562 645.632812 C 113.074219 651.3125 117.121094 656.480469 121.632812 660.992188 C 122.238281 661.597656 123.03125 661.898438 123.824219 661.898438 C 124.617188 661.898438 125.40625 661.597656 126.015625 660.992188 C 127.222656 659.78125 127.222656 657.824219 126.011719 656.613281 C 121.84375 652.449219 118.101562 647.664062 114.886719 642.40625 " fill-opacity="1" fill-rule="nonzero"/><path fill="#fbc04f" d="M 106.445312 531.699219 C 104.84375 531.089844 103.0625 531.914062 102.464844 533.515625 C 100.351562 539.179688 98.605469 545.4375 97.269531 552.117188 C 96.933594 553.792969 98.023438 555.421875 99.699219 555.757812 C 99.902344 555.800781 100.105469 555.820312 100.308594 555.820312 C 101.753906 555.820312 103.046875 554.800781 103.34375 553.332031 C 104.613281 546.972656 106.269531 541.035156 108.265625 535.679688 C 108.863281 534.074219 108.046875 532.292969 106.445312 531.699219 " fill-opacity="1" fill-rule="nonzero"/><path fill="#fbc04f" d="M 156.824219 674.660156 C 150.914062 672.957031 145.335938 670.582031 140.246094 667.609375 C 138.769531 666.746094 136.875 667.246094 136.007812 668.71875 C 135.148438 670.199219 135.644531 672.09375 137.121094 672.957031 C 142.652344 676.1875 148.707031 678.761719 155.109375 680.609375 C 155.394531 680.695312 155.683594 680.730469 155.96875 680.730469 C 157.3125 680.730469 158.550781 679.851562 158.941406 678.492188 C 159.414062 676.847656 158.464844 675.132812 156.824219 674.660156 " fill-opacity="1" fill-rule="nonzero"/><path fill="#fbc04f" d="M 262.625 653.914062 C 257.179688 656.933594 251.605469 659.761719 246.054688 662.3125 C 244.5 663.023438 243.820312 664.863281 244.535156 666.417969 C 245.058594 667.550781 246.179688 668.21875 247.347656 668.21875 C 247.78125 668.21875 248.222656 668.128906 248.640625 667.9375 C 254.332031 665.320312 260.050781 662.421875 265.632812 659.328125 C 267.125 658.496094 267.667969 656.613281 266.835938 655.117188 C 266.007812 653.625 264.125 653.085938 262.625 653.914062 " fill-opacity="1" fill-rule="nonzero"/><path fill="#fbc04f" d="M 371.722656 553.496094 C 367.910156 558.554688 364.03125 563.515625 360.199219 568.253906 C 359.125 569.578125 359.324219 571.527344 360.65625 572.601562 C 361.230469 573.070312 361.917969 573.296875 362.601562 573.296875 C 363.503906 573.296875 364.398438 572.902344 365.011719 572.144531 C 368.890625 567.359375 372.816406 562.339844 376.667969 557.222656 C 377.699219 555.859375 377.425781 553.917969 376.058594 552.886719 C 374.695312 551.863281 372.753906 552.128906 371.722656 553.496094 " fill-opacity="1" fill-rule="nonzero"/><path fill="#fbc04f" d="M 397.671875 522.054688 C 396.25 521.101562 394.324219 521.488281 393.375 522.910156 C 389.839844 528.207031 386.273438 533.40625 382.769531 538.363281 C 381.78125 539.757812 382.109375 541.6875 383.507812 542.675781 C 384.050781 543.0625 384.675781 543.246094 385.292969 543.246094 C 386.261719 543.246094 387.21875 542.785156 387.824219 541.9375 C 391.359375 536.9375 394.964844 531.691406 398.527344 526.34375 C 399.476562 524.921875 399.09375 523 397.671875 522.054688 " fill-opacity="1" fill-rule="nonzero"/><path fill="#fbc04f" d="M 437.878906 461.601562 C 433.675781 465.902344 429.566406 470.632812 425.308594 476.050781 C 424.253906 477.398438 424.488281 479.339844 425.832031 480.398438 C 426.398438 480.847656 427.070312 481.0625 427.742188 481.0625 C 428.660156 481.0625 429.570312 480.65625 430.175781 479.875 C 434.296875 474.628906 438.265625 470.066406 442.308594 465.921875 C 443.503906 464.699219 443.480469 462.738281 442.253906 461.542969 C 441.03125 460.355469 439.070312 460.378906 437.878906 461.601562 " fill-opacity="1" fill-rule="nonzero"/><path fill="#fbc04f" d="M 418.402344 490.621094 C 416.992188 489.652344 415.0625 490.015625 414.097656 491.421875 C 410.371094 496.859375 406.75 502.410156 403.65625 507.1875 C 402.722656 508.621094 403.132812 510.539062 404.566406 511.46875 C 405.085938 511.804688 405.667969 511.96875 406.246094 511.96875 C 407.261719 511.96875 408.257812 511.46875 408.847656 510.558594 C 411.925781 505.808594 415.519531 500.300781 419.207031 494.921875 C 420.171875 493.515625 419.816406 491.589844 418.402344 490.621094 " fill-opacity="1" fill-rule="nonzero"/><path fill="#fbc04f" d="M 293.808594 633.625 C 288.792969 637.386719 283.660156 640.984375 278.554688 644.308594 C 277.121094 645.242188 276.71875 647.160156 277.652344 648.589844 C 278.246094 649.503906 279.234375 649.996094 280.25 649.996094 C 280.828125 649.996094 281.414062 649.835938 281.9375 649.496094 C 287.15625 646.09375 292.398438 642.421875 297.523438 638.578125 C 298.890625 637.554688 299.167969 635.613281 298.140625 634.242188 C 297.117188 632.878906 295.171875 632.605469 293.808594 633.625 " fill-opacity="1" fill-rule="nonzero"/><path fill="#fbc04f" d="M 322.269531 609.527344 C 317.695312 613.855469 313.019531 618.050781 308.375 621.992188 C 307.070312 623.097656 306.910156 625.046875 308.019531 626.355469 C 308.628906 627.078125 309.503906 627.449219 310.378906 627.449219 C 311.085938 627.449219 311.800781 627.207031 312.382812 626.710938 C 317.109375 622.699219 321.871094 618.429688 326.527344 614.023438 C 327.765625 612.847656 327.820312 610.890625 326.644531 609.648438 C 325.46875 608.402344 323.507812 608.355469 322.269531 609.527344 " fill-opacity="1" fill-rule="nonzero"/><path fill="#fbc04f" d="M 348.140625 582.5625 C 343.980469 587.308594 339.734375 591.949219 335.515625 596.351562 C 334.332031 597.585938 334.375 599.546875 335.605469 600.726562 C 336.207031 601.300781 336.980469 601.589844 337.75 601.589844 C 338.5625 601.589844 339.378906 601.269531 339.984375 600.632812 C 344.269531 596.164062 348.582031 591.453125 352.796875 586.648438 C 353.925781 585.359375 353.796875 583.402344 352.511719 582.277344 C 351.222656 581.144531 349.269531 581.277344 348.140625 582.5625 " fill-opacity="1" fill-rule="nonzero"/><path fill="#fbc04f" d="M 20.445312 412.945312 C 18.800781 412.515625 17.09375 413.488281 16.65625 415.140625 C 15.03125 421.222656 13.527344 427.425781 12.183594 433.570312 C 11.816406 435.238281 12.875 436.890625 14.546875 437.257812 C 14.769531 437.304688 14.992188 437.328125 15.210938 437.328125 C 16.632812 437.328125 17.917969 436.339844 18.234375 434.890625 C 19.558594 428.84375 21.039062 422.730469 22.636719 416.734375 C 23.078125 415.082031 22.097656 413.386719 20.445312 412.945312 " fill-opacity="1" fill-rule="nonzero"/><path fill="#fbc04f" d="M 97.246094 593.277344 L 97.367188 593.277344 C 99.074219 593.210938 100.40625 591.773438 100.34375 590.0625 C 100.273438 588.300781 100.242188 586.539062 100.242188 584.785156 C 100.242188 582.695312 100.289062 580.5625 100.382812 578.445312 C 100.484375 576.222656 100.628906 573.945312 100.820312 571.621094 C 100.960938 569.917969 99.691406 568.421875 97.984375 568.28125 C 96.273438 568.144531 94.785156 569.410156 94.648438 571.117188 C 94.449219 573.511719 94.304688 575.867188 94.199219 578.167969 C 94.097656 580.371094 94.046875 582.601562 94.046875 584.785156 C 94.046875 586.617188 94.082031 588.457031 94.152344 590.300781 C 94.21875 591.972656 95.589844 593.277344 97.246094 593.277344 " fill-opacity="1" fill-rule="nonzero"/><path fill="#fbc04f" d="M 49.824219 271.121094 C 50.164062 275.695312 50.394531 280.628906 50.53125 286.199219 C 50.558594 287.382812 50.582031 288.570312 50.601562 289.75 C 50.628906 291.445312 52.007812 292.804688 53.695312 292.804688 L 53.746094 292.800781 C 55.453125 292.777344 56.820312 291.367188 56.792969 289.660156 C 56.773438 288.453125 56.75 287.25 56.722656 286.046875 C 56.582031 280.375 56.347656 275.34375 56 270.667969 C 55.875 268.960938 54.390625 267.691406 52.6875 267.808594 C 50.980469 267.933594 49.699219 269.417969 49.824219 271.121094 " fill-opacity="1" fill-rule="nonzero"/><path fill="#fbc04f" d="M 112.097656 520.386719 C 112.625 520.742188 113.226562 520.914062 113.824219 520.914062 C 114.820312 520.914062 115.796875 520.433594 116.394531 519.550781 C 119.890625 514.367188 123.96875 510.039062 128.515625 506.683594 C 129.890625 505.667969 130.179688 503.726562 129.164062 502.355469 C 128.148438 500.976562 126.207031 500.6875 124.835938 501.703125 C 119.722656 505.480469 115.152344 510.320312 111.261719 516.085938 C 110.304688 517.503906 110.679688 519.425781 112.097656 520.386719 " fill-opacity="1" fill-rule="nonzero"/><path fill="#fbc04f" d="M 53.496094 305.433594 C 51.789062 305.3125 50.308594 306.601562 50.1875 308.300781 C 49.71875 314.933594 48.871094 320.875 47.605469 326.457031 C 47.222656 328.125 48.269531 329.785156 49.9375 330.164062 C 50.167969 330.214844 50.398438 330.238281 50.625 330.238281 C 52.039062 330.238281 53.316406 329.265625 53.640625 327.832031 C 54.980469 321.933594 55.871094 315.691406 56.363281 308.742188 C 56.484375 307.035156 55.199219 305.554688 53.496094 305.433594 " fill-opacity="1" fill-rule="nonzero"/><path fill="#fbc04f" d="M 144.253906 499.359375 C 149.957031 498.175781 155.636719 498.617188 161.046875 500.648438 C 161.40625 500.785156 161.773438 500.847656 162.136719 500.847656 C 163.386719 500.847656 164.566406 500.082031 165.035156 498.839844 C 165.636719 497.238281 164.828125 495.457031 163.226562 494.851562 C 156.722656 492.40625 149.839844 491.875 142.996094 493.296875 C 141.320312 493.648438 140.246094 495.28125 140.59375 496.957031 C 140.941406 498.628906 142.582031 499.707031 144.253906 499.359375 " fill-opacity="1" fill-rule="nonzero"/><path fill="#fbc04f" d="M 185.332031 525.109375 C 185.867188 526.21875 186.972656 526.863281 188.125 526.863281 C 188.578125 526.863281 189.035156 526.765625 189.46875 526.554688 C 191.007812 525.816406 191.65625 523.964844 190.914062 522.421875 C 187.917969 516.207031 184.175781 510.730469 179.792969 506.140625 C 178.609375 504.902344 176.652344 504.863281 175.414062 506.039062 C 174.179688 507.222656 174.136719 509.179688 175.316406 510.414062 C 179.25 514.535156 182.621094 519.480469 185.332031 525.109375 " fill-opacity="1" fill-rule="nonzero"/><path fill="#fbc04f" d="M 47.597656 252.753906 C 47.863281 254.253906 49.171875 255.308594 50.644531 255.308594 L 51.1875 255.261719 C 52.871094 254.964844 53.996094 253.355469 53.695312 251.675781 C 52.5 244.921875 50.957031 238.816406 48.984375 232.984375 C 48.4375 231.363281 46.679688 230.492188 45.058594 231.046875 C 43.441406 231.589844 42.570312 233.347656 43.121094 234.96875 C 44.992188 240.5 46.457031 246.316406 47.597656 252.753906 " fill-opacity="1" fill-rule="nonzero"/><path fill="#fbc04f" d="M 50.015625 591.113281 C 48.839844 589.871094 46.878906 589.816406 45.636719 590.996094 C 44.398438 592.171875 44.34375 594.128906 45.523438 595.371094 C 50.027344 600.125 54.855469 604.464844 59.878906 608.285156 C 60.4375 608.710938 61.097656 608.917969 61.75 608.917969 C 62.683594 608.917969 63.605469 608.496094 64.21875 607.695312 C 65.253906 606.332031 64.988281 604.390625 63.625 603.355469 C 58.871094 599.742188 54.289062 595.617188 50.015625 591.113281 " fill-opacity="1" fill-rule="nonzero"/><path fill="#fbc04f" d="M 186.183594 577.199219 C 183.808594 582.625 180.703125 587.832031 176.957031 592.683594 C 175.910156 594.035156 176.160156 595.980469 177.511719 597.023438 C 178.074219 597.460938 178.742188 597.671875 179.402344 597.671875 C 180.328125 597.671875 181.246094 597.257812 181.855469 596.464844 C 185.914062 591.21875 189.277344 585.570312 191.855469 579.679688 C 192.539062 578.117188 191.828125 576.289062 190.261719 575.605469 C 188.695312 574.921875 186.867188 575.632812 186.183594 577.199219 " fill-opacity="1" fill-rule="nonzero"/><path fill="#fbc04f" d="M 28.785156 561.171875 C 27.984375 559.660156 26.109375 559.082031 24.601562 559.882812 C 23.089844 560.683594 22.511719 562.554688 23.3125 564.066406 C 26.277344 569.671875 29.652344 575.183594 33.34375 580.441406 C 33.945312 581.296875 34.90625 581.757812 35.882812 581.757812 C 36.496094 581.757812 37.117188 581.578125 37.65625 581.195312 C 39.054688 580.21875 39.394531 578.289062 38.414062 576.886719 C 34.871094 571.835938 31.632812 566.550781 28.785156 561.171875 " fill-opacity="1" fill-rule="nonzero"/><path fill="#fbc04f" d="M 24.90625 400.957031 C 26.222656 400.957031 27.441406 400.113281 27.859375 398.789062 C 29.722656 392.882812 31.75 386.929688 33.882812 381.101562 C 34.46875 379.5 33.644531 377.71875 32.039062 377.132812 C 30.433594 376.542969 28.652344 377.367188 28.066406 378.976562 C 25.902344 384.890625 23.84375 390.929688 21.953125 396.929688 C 21.4375 398.558594 22.34375 400.296875 23.972656 400.8125 C 24.285156 400.910156 24.597656 400.957031 24.90625 400.957031 " fill-opacity="1" fill-rule="nonzero"/><path fill="#fbc04f" d="M 46.101562 342.203125 C 44.492188 341.585938 42.714844 342.386719 42.101562 343.980469 C 40.425781 348.359375 38.566406 352.78125 36.765625 357.058594 L 34.980469 361.316406 C 34.324219 362.898438 35.070312 364.707031 36.648438 365.363281 C 37.039062 365.527344 37.441406 365.601562 37.839844 365.601562 C 39.050781 365.601562 40.203125 364.886719 40.695312 363.695312 L 42.476562 359.453125 C 44.292969 355.136719 46.171875 350.664062 47.886719 346.199219 C 48.496094 344.601562 47.699219 342.8125 46.101562 342.203125 " fill-opacity="1" fill-rule="nonzero"/><path fill="#fbc04f" d="M 35.644531 218.410156 C 36.222656 219.394531 37.257812 219.9375 38.320312 219.9375 C 38.851562 219.9375 39.390625 219.804688 39.882812 219.511719 C 41.359375 218.648438 41.851562 216.753906 40.988281 215.277344 C 37.601562 209.5 33.648438 204.253906 29.238281 199.6875 C 28.050781 198.457031 26.089844 198.421875 24.863281 199.613281 C 23.632812 200.796875 23.597656 202.761719 24.785156 203.988281 C 28.851562 208.203125 32.503906 213.050781 35.644531 218.410156 " fill-opacity="1" fill-rule="nonzero"/><path fill="#fbc04f" d="M 8.550781 452.1875 C 8.382812 453.164062 8.214844 454.144531 8.054688 455.125 C 7.171875 460.484375 6.492188 465.851562 6.027344 471.09375 C 5.875 472.792969 7.132812 474.296875 8.835938 474.449219 L 9.113281 474.460938 C 10.699219 474.460938 12.050781 473.246094 12.195312 471.636719 C 12.644531 466.554688 13.308594 461.335938 14.164062 456.128906 C 14.324219 455.164062 14.488281 454.203125 14.652344 453.234375 C 14.941406 451.550781 13.808594 449.949219 12.125 449.660156 C 10.433594 449.367188 8.839844 450.5 8.550781 452.1875 " fill-opacity="1" fill-rule="nonzero"/><path fill="#fbc04f" d="M 12.601562 508.589844 C 11.890625 502.585938 11.503906 496.378906 11.445312 490.144531 C 11.429688 488.441406 10.046875 487.074219 8.351562 487.074219 L 8.320312 487.074219 C 6.609375 487.089844 5.238281 488.488281 5.253906 490.195312 C 5.3125 496.660156 5.714844 503.089844 6.453125 509.3125 C 6.636719 510.886719 7.972656 512.046875 9.523438 512.046875 L 9.890625 512.023438 C 11.585938 511.824219 12.800781 510.289062 12.601562 508.589844 " fill-opacity="1" fill-rule="nonzero"/><path fill="#fbc04f" d="M 15.824219 526.753906 C 15.425781 525.085938 13.75 524.070312 12.09375 524.460938 C 10.429688 524.859375 9.40625 526.53125 9.804688 528.191406 C 11.300781 534.441406 13.191406 540.617188 15.421875 546.550781 C 15.886719 547.796875 17.070312 548.5625 18.320312 548.5625 C 18.683594 548.5625 19.050781 548.5 19.410156 548.363281 C 21.007812 547.761719 21.820312 545.976562 21.21875 544.375 C 19.078125 538.679688 17.261719 532.75 15.824219 526.753906 " fill-opacity="1" fill-rule="nonzero"/><path fill="#fbc04f" d="M 11.9375 193.242188 C 13.023438 193.242188 14.082031 192.667969 14.648438 191.648438 C 15.476562 190.152344 14.9375 188.269531 13.441406 187.441406 C 10.554688 185.839844 7.550781 184.484375 4.515625 183.410156 C 2.902344 182.839844 1.132812 183.6875 0.5625 185.296875 C -0.0078125 186.90625 0.835938 188.679688 2.449219 189.246094 C 5.164062 190.207031 7.851562 191.421875 10.4375 192.851562 C 10.914062 193.117188 11.429688 193.242188 11.9375 193.242188 " fill-opacity="1" fill-rule="nonzero"/><path fill="#fab43b" d="M 571.738281 349.375 L 476.382812 286.445312 L 472.886719 422.445312 Z M 571.738281 349.375 " fill-opacity="1" fill-rule="nonzero"/><g clip-path="url(#27fd52ee58)"><path fill="#e6a32d" d="M 381.964844 240.300781 L 472.886719 422.445312 L 476.382812 286.445312 L 809.996094 125.625 L 381.964844 240.300781 " fill-opacity="1" fill-rule="nonzero"/></g><path fill="#e6a32d" d="M 460.199219 443.40625 C 457.546875 445.058594 454.890625 446.878906 452.3125 448.816406 C 450.949219 449.84375 450.671875 451.785156 451.703125 453.148438 C 452.308594 453.957031 453.238281 454.386719 454.175781 454.386719 C 454.824219 454.386719 455.480469 454.179688 456.035156 453.761719 C 458.464844 451.9375 460.96875 450.222656 463.46875 448.664062 C 464.917969 447.765625 465.367188 445.855469 464.464844 444.402344 C 463.5625 442.953125 461.65625 442.503906 460.199219 443.40625 " fill-opacity="1" fill-rule="nonzero"/><path fill="#e6a32d" d="M 135.578125 623.285156 C 135.257812 621.605469 133.636719 620.519531 131.953125 620.824219 C 125.984375 621.972656 119.890625 622.46875 113.917969 622.234375 C 112.226562 622.261719 110.773438 623.507812 110.707031 625.214844 C 110.644531 626.925781 111.980469 628.359375 113.6875 628.425781 C 114.699219 628.460938 115.714844 628.480469 116.734375 628.480469 C 122.1875 628.476562 127.703125 627.945312 133.121094 626.90625 C 134.800781 626.585938 135.902344 624.960938 135.578125 623.285156 " fill-opacity="1" fill-rule="nonzero"/><g clip-path="url(#a893efe814)"><path fill="#e6a32d" d="M 193.003906 677.515625 C 186.746094 678.105469 180.578125 678.199219 174.707031 677.777344 C 173 677.625 171.515625 678.933594 171.394531 680.636719 C 171.269531 682.34375 172.554688 683.824219 174.257812 683.949219 C 176.839844 684.136719 179.496094 684.234375 182.144531 684.234375 C 185.878906 684.226562 189.726562 684.042969 193.582031 683.683594 C 195.285156 683.519531 196.535156 682.011719 196.378906 680.3125 C 196.21875 678.609375 194.726562 677.335938 193.003906 677.515625 " fill-opacity="1" fill-rule="nonzero"/></g><path fill="#e6a32d" d="M 164.324219 605.613281 C 159.578125 609.460938 154.445312 612.710938 149.066406 615.257812 C 147.523438 615.988281 146.863281 617.835938 147.597656 619.378906 C 148.128906 620.5 149.238281 621.152344 150.394531 621.152344 C 150.839844 621.152344 151.292969 621.054688 151.722656 620.847656 C 157.542969 618.089844 163.097656 614.582031 168.226562 610.417969 C 169.554688 609.339844 169.753906 607.390625 168.679688 606.066406 C 167.601562 604.738281 165.652344 604.539062 164.324219 605.613281 " fill-opacity="1" fill-rule="nonzero"/><path fill="#e6a32d" d="M 228.894531 669.34375 C 222.984375 671.441406 217.019531 673.1875 211.167969 674.539062 C 209.503906 674.921875 208.464844 676.585938 208.847656 678.253906 C 209.179688 679.683594 210.453125 680.652344 211.863281 680.652344 C 212.09375 680.652344 212.328125 680.625 212.5625 680.570312 C 218.644531 679.164062 224.835938 677.355469 230.964844 675.179688 C 232.574219 674.605469 233.417969 672.839844 232.847656 671.226562 C 232.273438 669.617188 230.503906 668.769531 228.894531 669.34375 " fill-opacity="1" fill-rule="nonzero"/><path fill="#e6a32d" d="M 193.332031 538.59375 C 191.648438 538.882812 190.515625 540.484375 190.808594 542.171875 C 191.359375 545.375 191.640625 548.65625 191.640625 551.929688 C 191.640625 554.589844 191.453125 557.296875 191.085938 559.976562 C 190.855469 561.671875 192.039062 563.230469 193.734375 563.460938 L 194.15625 563.488281 C 195.683594 563.488281 197.011719 562.367188 197.222656 560.808594 C 197.625 557.859375 197.828125 554.867188 197.828125 551.929688 C 197.832031 548.3125 197.523438 544.667969 196.910156 541.117188 C 196.617188 539.429688 195.023438 538.304688 193.332031 538.59375 " fill-opacity="1" fill-rule="nonzero"/><path fill="#e6a32d" d="M 96.019531 619.550781 C 90.285156 618.023438 84.582031 615.84375 79.070312 613.058594 C 77.542969 612.289062 75.679688 612.902344 74.910156 614.425781 C 74.140625 615.953125 74.753906 617.8125 76.28125 618.582031 C 82.171875 621.5625 88.277344 623.898438 94.425781 625.539062 C 94.695312 625.605469 94.960938 625.640625 95.226562 625.640625 C 96.59375 625.640625 97.847656 624.726562 98.214844 623.339844 C 98.65625 621.6875 97.671875 619.992188 96.019531 619.550781 " fill-opacity="1" fill-rule="nonzero"/><path fill="#e6a32d" d="M 102.328125 608.332031 C 102.023438 606.648438 100.40625 605.539062 98.726562 605.84375 C 97.042969 606.15625 95.929688 607.765625 96.238281 609.445312 C 97.429688 615.953125 99.113281 622.234375 101.242188 628.109375 C 101.699219 629.367188 102.886719 630.148438 104.152344 630.148438 C 104.503906 630.148438 104.859375 630.089844 105.207031 629.964844 C 106.816406 629.382812 107.648438 627.609375 107.066406 626 C 105.050781 620.449219 103.457031 614.5 102.328125 608.332031 " fill-opacity="1" fill-rule="nonzero"/><path fill="#e6a32d" d="M 114.886719 642.40625 C 113.992188 640.945312 112.085938 640.488281 110.628906 641.375 C 109.167969 642.265625 108.710938 644.175781 109.601562 645.632812 C 113.074219 651.3125 117.121094 656.480469 121.632812 660.992188 C 122.238281 661.597656 123.03125 661.898438 123.824219 661.898438 C 124.617188 661.898438 125.40625 661.597656 126.015625 660.992188 C 127.222656 659.78125 127.222656 657.824219 126.011719 656.613281 C 121.84375 652.449219 118.101562 647.664062 114.886719 642.40625 " fill-opacity="1" fill-rule="nonzero"/><path fill="#e6a32d" d="M 106.445312 531.699219 C 104.84375 531.089844 103.0625 531.914062 102.464844 533.515625 C 100.351562 539.179688 98.605469 545.4375 97.269531 552.117188 C 96.933594 553.792969 98.023438 555.421875 99.699219 555.757812 C 99.902344 555.800781 100.105469 555.820312 100.308594 555.820312 C 101.753906 555.820312 103.046875 554.800781 103.34375 553.332031 C 104.613281 546.972656 106.269531 541.035156 108.265625 535.679688 C 108.863281 534.074219 108.046875 532.292969 106.445312 531.699219 " fill-opacity="1" fill-rule="nonzero"/><path fill="#e6a32d" d="M 156.824219 674.660156 C 150.914062 672.957031 145.335938 670.582031 140.246094 667.609375 C 138.769531 666.746094 136.875 667.246094 136.007812 668.71875 C 135.148438 670.199219 135.644531 672.09375 137.121094 672.957031 C 142.652344 676.1875 148.707031 678.761719 155.109375 680.609375 C 155.394531 680.695312 155.683594 680.730469 155.96875 680.730469 C 157.3125 680.730469 158.550781 679.851562 158.941406 678.492188 C 159.414062 676.847656 158.464844 675.132812 156.824219 674.660156 " fill-opacity="1" fill-rule="nonzero"/><path fill="#e6a32d" d="M 262.625 653.914062 C 257.179688 656.933594 251.605469 659.761719 246.054688 662.3125 C 244.5 663.023438 243.820312 664.863281 244.535156 666.417969 C 245.058594 667.550781 246.179688 668.21875 247.347656 668.21875 C 247.78125 668.21875 248.222656 668.128906 248.640625 667.9375 C 254.332031 665.320312 260.050781 662.421875 265.632812 659.328125 C 267.125 658.496094 267.667969 656.613281 266.835938 655.117188 C 266.007812 653.625 264.125 653.085938 262.625 653.914062 " fill-opacity="1" fill-rule="nonzero"/><path fill="#e6a32d" d="M 371.722656 553.496094 C 367.910156 558.554688 364.03125 563.515625 360.199219 568.253906 C 359.125 569.578125 359.324219 571.527344 360.65625 572.601562 C 361.230469 573.070312 361.917969 573.296875 362.601562 573.296875 C 363.503906 573.296875 364.398438 572.902344 365.011719 572.144531 C 368.890625 567.359375 372.816406 562.339844 376.667969 557.222656 C 377.699219 555.859375 377.425781 553.917969 376.058594 552.886719 C 374.695312 551.863281 372.753906 552.128906 371.722656 553.496094 " fill-opacity="1" fill-rule="nonzero"/><path fill="#e6a32d" d="M 397.671875 522.054688 C 396.25 521.101562 394.324219 521.488281 393.375 522.910156 C 389.839844 528.207031 386.273438 533.40625 382.769531 538.363281 C 381.78125 539.757812 382.109375 541.6875 383.507812 542.675781 C 384.050781 543.0625 384.675781 543.246094 385.292969 543.246094 C 386.261719 543.246094 387.21875 542.785156 387.824219 541.9375 C 391.359375 536.9375 394.964844 531.691406 398.527344 526.34375 C 399.476562 524.921875 399.09375 523 397.671875 522.054688 " fill-opacity="1" fill-rule="nonzero"/><path fill="#e6a32d" d="M 437.878906 461.601562 C 433.675781 465.902344 429.566406 470.632812 425.308594 476.050781 C 424.253906 477.398438 424.488281 479.339844 425.832031 480.398438 C 426.398438 480.847656 427.070312 481.0625 427.742188 481.0625 C 428.660156 481.0625 429.570312 480.65625 430.175781 479.875 C 434.296875 474.628906 438.265625 470.066406 442.308594 465.921875 C 443.503906 464.699219 443.480469 462.738281 442.253906 461.542969 C 441.03125 460.355469 439.070312 460.378906 437.878906 461.601562 " fill-opacity="1" fill-rule="nonzero"/><path fill="#e6a32d" d="M 418.402344 490.621094 C 416.992188 489.652344 415.0625 490.015625 414.097656 491.421875 C 410.371094 496.859375 406.75 502.410156 403.65625 507.1875 C 402.722656 508.621094 403.132812 510.539062 404.566406 511.46875 C 405.085938 511.804688 405.667969 511.96875 406.246094 511.96875 C 407.261719 511.96875 408.257812 511.46875 408.847656 510.558594 C 411.925781 505.808594 415.519531 500.300781 419.207031 494.921875 C 420.171875 493.515625 419.816406 491.589844 418.402344 490.621094 " fill-opacity="1" fill-rule="nonzero"/><path fill="#e6a32d" d="M 293.808594 633.625 C 288.792969 637.386719 283.660156 640.984375 278.554688 644.308594 C 277.121094 645.242188 276.71875 647.160156 277.652344 648.589844 C 278.246094 649.503906 279.234375 649.996094 280.25 649.996094 C 280.828125 649.996094 281.414062 649.835938 281.9375 649.496094 C 287.15625 646.09375 292.398438 642.421875 297.523438 638.578125 C 298.890625 637.554688 299.167969 635.613281 298.140625 634.242188 C 297.117188 632.878906 295.171875 632.605469 293.808594 633.625 " fill-opacity="1" fill-rule="nonzero"/><path fill="#e6a32d" d="M 322.269531 609.527344 C 317.695312 613.855469 313.019531 618.050781 308.375 621.992188 C 307.070312 623.097656 306.910156 625.046875 308.019531 626.355469 C 308.628906 627.078125 309.503906 627.449219 310.378906 627.449219 C 311.085938 627.449219 311.800781 627.207031 312.382812 626.710938 C 317.109375 622.699219 321.871094 618.429688 326.527344 614.023438 C 327.765625 612.847656 327.820312 610.890625 326.644531 609.648438 C 325.46875 608.402344 323.507812 608.355469 322.269531 609.527344 " fill-opacity="1" fill-rule="nonzero"/><path fill="#e6a32d" d="M 348.140625 582.5625 C 343.980469 587.308594 339.734375 591.949219 335.515625 596.351562 C 334.332031 597.585938 334.375 599.546875 335.605469 600.726562 C 336.207031 601.300781 336.980469 601.589844 337.75 601.589844 C 338.5625 601.589844 339.378906 601.269531 339.984375 600.632812 C 344.269531 596.164062 348.582031 591.453125 352.796875 586.648438 C 353.925781 585.359375 353.796875 583.402344 352.511719 582.277344 C 351.222656 581.144531 349.269531 581.277344 348.140625 582.5625 " fill-opacity="1" fill-rule="nonzero"/><path fill="#e6a32d" d="M 20.445312 412.945312 C 18.800781 412.515625 17.09375 413.488281 16.65625 415.140625 C 15.03125 421.222656 13.527344 427.425781 12.183594 433.570312 C 11.816406 435.238281 12.875 436.890625 14.546875 437.257812 C 14.769531 437.304688 14.992188 437.328125 15.210938 437.328125 C 16.632812 437.328125 17.917969 436.339844 18.234375 434.890625 C 19.558594 428.84375 21.039062 422.730469 22.636719 416.734375 C 23.078125 415.082031 22.097656 413.386719 20.445312 412.945312 " fill-opacity="1" fill-rule="nonzero"/><path fill="#e6a32d" d="M 97.246094 593.277344 L 97.367188 593.277344 C 99.074219 593.210938 100.40625 591.773438 100.34375 590.0625 C 100.273438 588.300781 100.242188 586.539062 100.242188 584.785156 C 100.242188 582.695312 100.289062 580.5625 100.382812 578.445312 C 100.484375 576.222656 100.628906 573.945312 100.820312 571.621094 C 100.960938 569.917969 99.691406 568.421875 97.984375 568.28125 C 96.273438 568.144531 94.785156 569.410156 94.648438 571.117188 C 94.449219 573.511719 94.304688 575.867188 94.199219 578.167969 C 94.097656 580.371094 94.046875 582.601562 94.046875 584.785156 C 94.046875 586.617188 94.082031 588.457031 94.152344 590.300781 C 94.21875 591.972656 95.589844 593.277344 97.246094 593.277344 " fill-opacity="1" fill-rule="nonzero"/><path fill="#e6a32d" d="M 49.824219 271.121094 C 50.164062 275.695312 50.394531 280.628906 50.53125 286.199219 C 50.558594 287.382812 50.582031 288.570312 50.601562 289.75 C 50.628906 291.445312 52.007812 292.804688 53.695312 292.804688 L 53.746094 292.800781 C 55.453125 292.777344 56.820312 291.367188 56.792969 289.660156 C 56.773438 288.453125 56.75 287.25 56.722656 286.046875 C 56.582031 280.375 56.347656 275.34375 56 270.667969 C 55.875 268.960938 54.390625 267.691406 52.6875 267.808594 C 50.980469 267.933594 49.699219 269.417969 49.824219 271.121094 " fill-opacity="1" fill-rule="nonzero"/><path fill="#e6a32d" d="M 112.097656 520.386719 C 112.625 520.742188 113.226562 520.914062 113.824219 520.914062 C 114.820312 520.914062 115.796875 520.433594 116.394531 519.550781 C 119.890625 514.367188 123.96875 510.039062 128.515625 506.683594 C 129.890625 505.667969 130.179688 503.726562 129.164062 502.355469 C 128.148438 500.976562 126.207031 500.6875 124.835938 501.703125 C 119.722656 505.480469 115.152344 510.320312 111.261719 516.085938 C 110.304688 517.503906 110.679688 519.425781 112.097656 520.386719 " fill-opacity="1" fill-rule="nonzero"/><path fill="#e6a32d" d="M 53.496094 305.433594 C 51.789062 305.3125 50.308594 306.601562 50.1875 308.300781 C 49.71875 314.933594 48.871094 320.875 47.605469 326.457031 C 47.222656 328.125 48.269531 329.785156 49.9375 330.164062 C 50.167969 330.214844 50.398438 330.238281 50.625 330.238281 C 52.039062 330.238281 53.316406 329.265625 53.640625 327.832031 C 54.980469 321.933594 55.871094 315.691406 56.363281 308.742188 C 56.484375 307.035156 55.199219 305.554688 53.496094 305.433594 " fill-opacity="1" fill-rule="nonzero"/><path fill="#e6a32d" d="M 144.253906 499.359375 C 149.957031 498.175781 155.636719 498.617188 161.046875 500.648438 C 161.40625 500.785156 161.773438 500.847656 162.136719 500.847656 C 163.386719 500.847656 164.566406 500.082031 165.035156 498.839844 C 165.636719 497.238281 164.828125 495.457031 163.226562 494.851562 C 156.722656 492.40625 149.839844 491.875 142.996094 493.296875 C 141.320312 493.648438 140.246094 495.28125 140.59375 496.957031 C 140.941406 498.628906 142.582031 499.707031 144.253906 499.359375 " fill-opacity="1" fill-rule="nonzero"/><path fill="#e6a32d" d="M 185.332031 525.109375 C 185.867188 526.21875 186.972656 526.863281 188.125 526.863281 C 188.578125 526.863281 189.035156 526.765625 189.46875 526.554688 C 191.007812 525.816406 191.65625 523.964844 190.914062 522.421875 C 187.917969 516.207031 184.175781 510.730469 179.792969 506.140625 C 178.609375 504.902344 176.652344 504.863281 175.414062 506.039062 C 174.179688 507.222656 174.136719 509.179688 175.316406 510.414062 C 179.25 514.535156 182.621094 519.480469 185.332031 525.109375 " fill-opacity="1" fill-rule="nonzero"/><path fill="#e6a32d" d="M 47.597656 252.753906 C 47.863281 254.253906 49.171875 255.308594 50.644531 255.308594 L 51.1875 255.261719 C 52.871094 254.964844 53.996094 253.355469 53.695312 251.675781 C 52.5 244.921875 50.957031 238.816406 48.984375 232.984375 C 48.4375 231.363281 46.679688 230.492188 45.058594 231.046875 C 43.441406 231.589844 42.570312 233.347656 43.121094 234.96875 C 44.992188 240.5 46.457031 246.316406 47.597656 252.753906 " fill-opacity="1" fill-rule="nonzero"/><path fill="#e6a32d" d="M 50.015625 591.113281 C 48.839844 589.871094 46.878906 589.816406 45.636719 590.996094 C 44.398438 592.171875 44.34375 594.128906 45.523438 595.371094 C 50.027344 600.125 54.855469 604.464844 59.878906 608.285156 C 60.4375 608.710938 61.097656 608.917969 61.75 608.917969 C 62.683594 608.917969 63.605469 608.496094 64.21875 607.695312 C 65.253906 606.332031 64.988281 604.390625 63.625 603.355469 C 58.871094 599.742188 54.289062 595.617188 50.015625 591.113281 " fill-opacity="1" fill-rule="nonzero"/><path fill="#e6a32d" d="M 186.183594 577.199219 C 183.808594 582.625 180.703125 587.832031 176.957031 592.683594 C 175.910156 594.035156 176.160156 595.980469 177.511719 597.023438 C 178.074219 597.460938 178.742188 597.671875 179.402344 597.671875 C 180.328125 597.671875 181.246094 597.257812 181.855469 596.464844 C 185.914062 591.21875 189.277344 585.570312 191.855469 579.679688 C 192.539062 578.117188 191.828125 576.289062 190.261719 575.605469 C 188.695312 574.921875 186.867188 575.632812 186.183594 577.199219 " fill-opacity="1" fill-rule="nonzero"/><path fill="#e6a32d" d="M 28.785156 561.171875 C 27.984375 559.660156 26.109375 559.082031 24.601562 559.882812 C 23.089844 560.683594 22.511719 562.554688 23.3125 564.066406 C 26.277344 569.671875 29.652344 575.183594 33.34375 580.441406 C 33.945312 581.296875 34.90625 581.757812 35.882812 581.757812 C 36.496094 581.757812 37.117188 581.578125 37.65625 581.195312 C 39.054688 580.21875 39.394531 578.289062 38.414062 576.886719 C 34.871094 571.835938 31.632812 566.550781 28.785156 561.171875 " fill-opacity="1" fill-rule="nonzero"/><path fill="#e6a32d" d="M 24.90625 400.957031 C 26.222656 400.957031 27.441406 400.113281 27.859375 398.789062 C 29.722656 392.882812 31.75 386.929688 33.882812 381.101562 C 34.46875 379.5 33.644531 377.71875 32.039062 377.132812 C 30.433594 376.542969 28.652344 377.367188 28.066406 378.976562 C 25.902344 384.890625 23.84375 390.929688 21.953125 396.929688 C 21.4375 398.558594 22.34375 400.296875 23.972656 400.8125 C 24.285156 400.910156 24.597656 400.957031 24.90625 400.957031 " fill-opacity="1" fill-rule="nonzero"/><path fill="#e6a32d" d="M 46.101562 342.203125 C 44.492188 341.585938 42.714844 342.386719 42.101562 343.980469 C 40.425781 348.359375 38.566406 352.78125 36.765625 357.058594 L 34.980469 361.316406 C 34.324219 362.898438 35.070312 364.707031 36.648438 365.363281 C 37.039062 365.527344 37.441406 365.601562 37.839844 365.601562 C 39.050781 365.601562 40.203125 364.886719 40.695312 363.695312 L 42.476562 359.453125 C 44.292969 355.136719 46.171875 350.664062 47.886719 346.199219 C 48.496094 344.601562 47.699219 342.8125 46.101562 342.203125 " fill-opacity="1" fill-rule="nonzero"/><path fill="#e6a32d" d="M 35.644531 218.410156 C 36.222656 219.394531 37.257812 219.9375 38.320312 219.9375 C 38.851562 219.9375 39.390625 219.804688 39.882812 219.511719 C 41.359375 218.648438 41.851562 216.753906 40.988281 215.277344 C 37.601562 209.5 33.648438 204.253906 29.238281 199.6875 C 28.050781 198.457031 26.089844 198.421875 24.863281 199.613281 C 23.632812 200.796875 23.597656 202.761719 24.785156 203.988281 C 28.851562 208.203125 32.503906 213.050781 35.644531 218.410156 " fill-opacity="1" fill-rule="nonzero"/><path fill="#e6a32d" d="M 8.550781 452.1875 C 8.382812 453.164062 8.214844 454.144531 8.054688 455.125 C 7.171875 460.484375 6.492188 465.851562 6.027344 471.09375 C 5.875 472.792969 7.132812 474.296875 8.835938 474.449219 L 9.113281 474.460938 C 10.699219 474.460938 12.050781 473.246094 12.195312 471.636719 C 12.644531 466.554688 13.308594 461.335938 14.164062 456.128906 C 14.324219 455.164062 14.488281 454.203125 14.652344 453.234375 C 14.941406 451.550781 13.808594 449.949219 12.125 449.660156 C 10.433594 449.367188 8.839844 450.5 8.550781 452.1875 " fill-opacity="1" fill-rule="nonzero"/><path fill="#e6a32d" d="M 12.601562 508.589844 C 11.890625 502.585938 11.503906 496.378906 11.445312 490.144531 C 11.429688 488.441406 10.046875 487.074219 8.351562 487.074219 L 8.320312 487.074219 C 6.609375 487.089844 5.238281 488.488281 5.253906 490.195312 C 5.3125 496.660156 5.714844 503.089844 6.453125 509.3125 C 6.636719 510.886719 7.972656 512.046875 9.523438 512.046875 L 9.890625 512.023438 C 11.585938 511.824219 12.800781 510.289062 12.601562 508.589844 " fill-opacity="1" fill-rule="nonzero"/><path fill="#e6a32d" d="M 15.824219 526.753906 C 15.425781 525.085938 13.75 524.070312 12.09375 524.460938 C 10.429688 524.859375 9.40625 526.53125 9.804688 528.191406 C 11.300781 534.441406 13.191406 540.617188 15.421875 546.550781 C 15.886719 547.796875 17.070312 548.5625 18.320312 548.5625 C 18.683594 548.5625 19.050781 548.5 19.410156 548.363281 C 21.007812 547.761719 21.820312 545.976562 21.21875 544.375 C 19.078125 538.679688 17.261719 532.75 15.824219 526.753906 " fill-opacity="1" fill-rule="nonzero"/><path fill="#e6a32d" d="M 11.9375 193.242188 C 13.023438 193.242188 14.082031 192.667969 14.648438 191.648438 C 15.476562 190.152344 14.9375 188.269531 13.441406 187.441406 C 10.554688 185.839844 7.550781 184.484375 4.515625 183.410156 C 2.902344 182.839844 1.132812 183.6875 0.5625 185.296875 C -0.0078125 186.90625 0.835938 188.679688 2.449219 189.246094 C 5.164062 190.207031 7.851562 191.421875 10.4375 192.851562 C 10.914062 193.117188 11.429688 193.242188 11.9375 193.242188 " fill-opacity="1" fill-rule="nonzero"/></svg>