<svg xmlns="http://www.w3.org/2000/svg" xmlns:xlink="http://www.w3.org/1999/xlink" width="1080" zoomAndPan="magnify" viewBox="0 0 810 809.999993" height="1080" preserveAspectRatio="xMidYMid meet" version="1.0"><defs><clipPath id="d1e6bef6c1"><path d="M 621 128.585938 L 810 128.585938 L 810 325 L 621 325 Z M 621 128.585938 " clip-rule="nonzero"/></clipPath><clipPath id="3422a41726"><path d="M 577 128.585938 L 810 128.585938 L 810 240 L 577 240 Z M 577 128.585938 " clip-rule="nonzero"/></clipPath><clipPath id="cafc57767a"><path d="M 665 128.585938 L 810 128.585938 L 810 292 L 665 292 Z M 665 128.585938 " clip-rule="nonzero"/></clipPath><clipPath id="72dbdabe19"><path d="M 621 128.585938 L 810 128.585938 L 810 325 L 621 325 Z M 621 128.585938 " clip-rule="nonzero"/></clipPath></defs><g clip-path="url(#d1e6bef6c1)"><path fill="#fab43b" d="M 637.902344 324.132812 L 809.769531 128.585938 L 621.136719 239.59375 Z M 637.902344 324.132812 " fill-opacity="1" fill-rule="nonzero"/></g><path fill="#fab43b" d="M 5.628906 583.910156 C 22.398438 579.71875 40.5625 575.527344 57.328125 572.730469 " fill-opacity="1" fill-rule="nonzero"/><path fill="#fab43b" d="M 6.894531 588.632812 C 24 584.363281 41.199219 580.371094 58.59375 577.457031 C 61.230469 577.015625 62.691406 573.855469 62.054688 571.46875 C 61.3125 568.707031 58.691406 567.570312 56.0625 568.007812 C 38.667969 570.921875 21.46875 574.914062 4.363281 579.1875 C 1.777344 579.832031 0.226562 582.632812 0.90625 585.175781 C 1.605469 587.785156 4.308594 589.28125 6.894531 588.632812 Z M 6.894531 588.632812 " fill-opacity="1" fill-rule="nonzero"/><path fill="#fab43b" d="M 99.25 562.953125 C 113.222656 555.964844 131.386719 554.566406 146.757812 550.375 " fill-opacity="1" fill-rule="nonzero"/><path fill="#fab43b" d="M 101.726562 567.167969 C 108.226562 563.960938 116.171875 561.960938 123.746094 560.339844 C 131.839844 558.609375 140.023438 557.257812 148.023438 555.101562 C 154.109375 553.457031 151.582031 544.007812 145.492188 545.652344 C 129.246094 550.039062 112.050781 551.191406 96.773438 558.734375 C 94.378906 559.914062 93.757812 563.253906 95.03125 565.425781 C 96.449219 567.847656 99.335938 568.347656 101.726562 567.167969 Z M 101.726562 567.167969 " fill-opacity="1" fill-rule="nonzero"/><path fill="#fab43b" d="M 187.277344 533.609375 C 199.855469 529.417969 215.222656 523.828125 227.800781 516.839844 " fill-opacity="1" fill-rule="nonzero"/><path fill="#fab43b" d="M 188.542969 538.332031 C 202.800781 533.570312 217.085938 528.34375 230.277344 521.058594 C 232.609375 519.769531 233.339844 516.617188 232.019531 514.363281 C 230.644531 512.023438 227.65625 511.332031 225.324219 512.621094 C 212.789062 519.542969 199.605469 524.347656 186.011719 528.882812 C 183.484375 529.726562 181.832031 532.179688 182.554688 534.875 C 183.210938 537.332031 186.011719 539.175781 188.542969 538.332031 Z M 188.542969 538.332031 " fill-opacity="1" fill-rule="nonzero"/><path fill="#fab43b" d="M 261.335938 498.675781 C 271.117188 491.6875 286.484375 484.703125 296.265625 474.921875 " fill-opacity="1" fill-rule="nonzero"/><path fill="#fab43b" d="M 263.8125 502.894531 C 275.660156 494.492188 289.296875 488.699219 299.742188 478.363281 C 304.226562 473.929688 297.28125 467.039062 292.789062 471.480469 C 283.246094 480.921875 270.078125 486.5 258.859375 494.457031 C 256.6875 495.996094 255.679688 498.703125 257.117188 501.152344 C 258.375 503.300781 261.632812 504.4375 263.8125 502.894531 Z M 263.8125 502.894531 " fill-opacity="1" fill-rule="nonzero"/><path fill="#fab43b" d="M 322.816406 452.566406 C 328.40625 448.375 349.363281 431.605469 354.953125 419.03125 " fill-opacity="1" fill-rule="nonzero"/><path fill="#fab43b" d="M 325.292969 456.785156 C 331.242188 452.3125 336.949219 447.492188 342.363281 442.382812 C 348.71875 436.375 355.527344 429.546875 359.1875 421.476562 C 360.289062 419.050781 359.875 416.222656 357.398438 414.792969 C 355.257812 413.558594 351.820312 414.152344 350.71875 416.585938 C 349.972656 418.230469 349.066406 419.78125 348.074219 421.292969 C 347.53125 422.125 346.945312 422.929688 346.351562 423.726562 C 346.976562 422.886719 346.085938 424.0625 346.027344 424.136719 C 345.652344 424.613281 345.269531 425.078125 344.882812 425.546875 C 341.957031 429.074219 338.726562 432.347656 335.40625 435.5 C 332.441406 438.320312 329.363281 441.019531 326.226562 443.640625 C 324.980469 444.679688 323.71875 445.707031 322.445312 446.71875 C 322.214844 446.898438 321.984375 447.082031 321.753906 447.265625 C 320.6875 448.101562 322.339844 446.8125 321.703125 447.304688 C 321.25 447.65625 320.796875 448.003906 320.339844 448.347656 C 318.210938 449.945312 317.132812 452.542969 318.597656 455.042969 C 319.828125 457.144531 323.15625 458.386719 325.292969 456.785156 Z M 325.292969 456.785156 " fill-opacity="1" fill-rule="nonzero"/><path fill="#fab43b" d="M 371.71875 388.289062 C 375.914062 374.316406 387.089844 363.136719 385.695312 347.769531 " fill-opacity="1" fill-rule="nonzero"/><path fill="#fab43b" d="M 376.4375 389.582031 C 377.515625 386.074219 378.570312 383.757812 380.222656 380.433594 C 381.871094 377.113281 383.652344 373.863281 385.265625 370.527344 C 388.703125 363.414062 391.234375 355.804688 390.585938 347.804688 C 390.371094 345.148438 388.566406 342.894531 385.730469 342.878906 C 383.242188 342.859375 380.585938 345.074219 380.800781 347.734375 C 381.359375 354.617188 379.285156 360.558594 376.335938 366.582031 C 373.042969 373.3125 369.214844 379.789062 367.003906 387 C 366.21875 389.550781 367.917969 392.320312 370.429688 393.007812 C 373.058594 393.730469 375.65625 392.125 376.4375 389.582031 Z M 376.4375 389.582031 " fill-opacity="1" fill-rule="nonzero"/><path fill="#fab43b" d="M 387.089844 319.824219 C 389.886719 307.246094 389.886719 294.671875 389.886719 282.09375 " fill-opacity="1" fill-rule="nonzero"/><path fill="#fab43b" d="M 391.808594 321.113281 C 394.609375 308.289062 394.777344 295.195312 394.777344 282.128906 C 394.777344 279.464844 392.597656 277.222656 389.921875 277.203125 C 387.269531 277.1875 384.992188 279.394531 384.992188 282.058594 C 384.992188 294.265625 384.988281 306.550781 382.375 318.53125 C 381.804688 321.136719 383.132812 323.808594 385.800781 324.539062 C 388.265625 325.21875 391.242188 323.714844 391.808594 321.113281 Z M 391.808594 321.113281 " fill-opacity="1" fill-rule="nonzero"/><path fill="#fab43b" d="M 366.132812 258.339844 C 359.144531 248.558594 350.761719 241.574219 340.980469 234.585938 " fill-opacity="1" fill-rule="nonzero"/><path fill="#fab43b" d="M 370.351562 255.863281 C 362.980469 245.632812 353.621094 237.652344 343.425781 230.351562 C 341.253906 228.796875 337.980469 230.003906 336.746094 232.140625 C 335.316406 234.617188 336.371094 237.273438 338.535156 238.824219 C 347.113281 244.964844 355.738281 252.246094 361.914062 260.816406 C 363.46875 262.980469 366.144531 264.003906 368.609375 262.558594 C 370.746094 261.308594 371.910156 258.03125 370.351562 255.863281 Z M 370.351562 255.863281 " fill-opacity="1" fill-rule="nonzero"/><path fill="#fab43b" d="M 287.882812 227.601562 C 280.898438 224.804688 268.320312 227.601562 258.539062 227.601562 " fill-opacity="1" fill-rule="nonzero"/><path fill="#fab43b" d="M 289.175781 222.882812 C 284.691406 221.179688 279.5625 221.347656 274.855469 221.625 C 269.425781 221.949219 264.019531 222.683594 258.574219 222.710938 C 255.910156 222.722656 253.667969 224.878906 253.648438 227.566406 C 253.632812 230.207031 255.839844 232.507812 258.503906 232.492188 C 263.574219 232.46875 268.613281 231.851562 273.660156 231.484375 C 276.167969 231.300781 278.679688 231.199219 281.191406 231.289062 C 281.683594 231.304688 282.175781 231.34375 282.667969 231.382812 C 282.984375 231.410156 283.300781 231.445312 283.617188 231.480469 C 283.128906 231.414062 283.167969 231.425781 283.726562 231.515625 C 284.707031 231.6875 285.664062 231.964844 286.59375 232.316406 C 289.089844 233.269531 291.945312 231.277344 292.601562 228.890625 C 293.359375 226.136719 291.660156 223.828125 289.175781 222.882812 Z M 289.175781 222.882812 " fill-opacity="1" fill-rule="nonzero"/><path fill="#fab43b" d="M 223.609375 251.355469 C 215.222656 259.738281 205.441406 273.710938 197.058594 283.492188 " fill-opacity="1" fill-rule="nonzero"/><path fill="#fab43b" d="M 220.128906 247.914062 C 210.328125 257.78125 202.59375 269.5 193.582031 280.054688 C 191.855469 282.074219 191.617188 284.992188 193.617188 286.96875 C 195.410156 288.738281 198.800781 288.964844 200.535156 286.933594 C 209.550781 276.382812 217.285156 264.660156 227.085938 254.796875 C 231.527344 250.324219 224.585938 243.429688 220.128906 247.914062 Z M 220.128906 247.914062 " fill-opacity="1" fill-rule="nonzero"/><path fill="#fab43b" d="M 190.074219 318.425781 C 190.074219 326.808594 180.292969 342.179688 181.6875 354.753906 " fill-opacity="1" fill-rule="nonzero"/><path fill="#fab43b" d="M 185.179688 318.390625 C 185.175781 318.832031 185.148438 319.273438 185.109375 319.714844 C 185.046875 320.246094 185.058594 320.179688 185.140625 319.519531 C 185.082031 319.894531 185.003906 320.261719 184.925781 320.632812 C 184.644531 322.003906 184.234375 323.351562 183.8125 324.6875 C 182.824219 327.8125 181.640625 330.878906 180.554688 333.972656 C 178.242188 340.546875 176.09375 347.675781 176.796875 354.71875 C 177.0625 357.371094 178.777344 359.628906 181.652344 359.644531 C 184.101562 359.664062 186.84375 357.445312 186.582031 354.789062 C 186.25 351.472656 186.566406 348.886719 187.15625 346.117188 C 187.882812 342.695312 189.003906 339.359375 190.160156 336.0625 C 192.144531 330.421875 194.875 324.546875 194.964844 318.460938 C 195.003906 315.796875 192.757812 313.550781 190.109375 313.535156 C 187.425781 313.515625 185.21875 315.726562 185.179688 318.390625 Z M 185.179688 318.390625 " fill-opacity="1" fill-rule="nonzero"/><path fill="#fab43b" d="M 187.277344 391.085938 C 190.074219 400.867188 191.46875 413.441406 199.855469 421.824219 " fill-opacity="1" fill-rule="nonzero"/><path fill="#fab43b" d="M 182.554688 392.351562 C 185.835938 403.980469 187.574219 416.28125 196.414062 425.300781 C 200.828125 429.804688 207.714844 422.859375 203.292969 418.347656 C 201.480469 416.5 200.40625 414.992188 199.027344 412.5 C 198.6875 411.886719 198.378906 411.253906 198.074219 410.621094 C 197.992188 410.457031 197.261719 408.777344 197.527344 409.421875 C 196.996094 408.125 196.542969 406.796875 196.113281 405.460938 C 194.457031 400.328125 193.46875 395.007812 192 389.820312 C 190.289062 383.753906 180.839844 386.277344 182.554688 392.351562 Z M 182.554688 392.351562 " fill-opacity="1" fill-rule="nonzero"/><path fill="#fab43b" d="M 223.609375 448.375 C 231.992188 453.960938 243.167969 459.550781 252.949219 465.140625 " fill-opacity="1" fill-rule="nonzero"/><path fill="#fab43b" d="M 221.164062 452.609375 C 230.558594 458.835938 240.726562 463.800781 250.503906 469.375 C 255.988281 472.5 260.882812 464.03125 255.394531 460.90625 C 245.617188 455.332031 235.449219 450.363281 226.054688 444.136719 C 223.828125 442.664062 220.644531 443.726562 219.371094 445.929688 C 217.980469 448.34375 218.941406 451.136719 221.164062 452.609375 Z M 221.164062 452.609375 " fill-opacity="1" fill-rule="nonzero"/><path fill="#fab43b" d="M 336.789062 477.714844 C 343.773438 481.910156 360.542969 483.304688 371.71875 480.511719 " fill-opacity="1" fill-rule="nonzero"/><path fill="#fab43b" d="M 334.34375 481.953125 C 339.726562 485.09375 346.28125 486.0625 352.390625 486.605469 C 359.214844 487.210938 366.316406 486.859375 372.984375 485.234375 C 375.578125 484.605469 377.121094 481.773438 376.445312 479.246094 C 375.742188 476.625 373.042969 475.15625 370.453125 475.789062 C 369.054688 476.128906 367.640625 476.398438 366.214844 476.613281 C 365.621094 476.699219 365.558594 476.707031 366.023438 476.644531 C 365.6875 476.683594 365.347656 476.722656 365.011719 476.753906 C 364.15625 476.84375 363.292969 476.90625 362.433594 476.957031 C 359.285156 477.15625 356.121094 477.09375 352.976562 476.863281 C 352.289062 476.8125 351.605469 476.742188 350.921875 476.671875 C 350.585938 476.636719 350.25 476.597656 349.914062 476.554688 C 348.285156 476.359375 350.792969 476.695312 349.195312 476.453125 C 347.792969 476.238281 346.402344 475.953125 345.023438 475.625 C 343.78125 475.328125 342.558594 474.953125 341.359375 474.523438 C 341.113281 474.433594 340.871094 474.339844 340.628906 474.242188 C 341.199219 474.484375 341.242188 474.496094 340.757812 474.28125 C 340.234375 474.046875 339.730469 473.769531 339.234375 473.480469 C 333.78125 470.296875 328.894531 478.769531 334.34375 481.953125 Z M 334.34375 481.953125 " fill-opacity="1" fill-rule="nonzero"/><path fill="#fab43b" d="M 410.84375 472.128906 C 417.832031 473.523438 431.804688 467.933594 440.1875 463.742188 " fill-opacity="1" fill-rule="nonzero"/><path fill="#fab43b" d="M 409.554688 476.84375 C 415.085938 477.851562 420.730469 476.5 426.007812 474.835938 C 431.726562 473.035156 437.300781 470.628906 442.664062 467.960938 C 445.050781 466.773438 445.683594 463.445312 444.40625 461.265625 C 442.988281 458.851562 440.097656 458.339844 437.710938 459.523438 C 432.78125 461.976562 429.179688 463.511719 423.976562 465.226562 C 421.601562 466.011719 419.179688 466.664062 416.722656 467.136719 C 416.523438 467.171875 414.648438 467.445312 415.808594 467.300781 C 415.257812 467.371094 414.703125 467.40625 414.152344 467.4375 C 413.636719 467.464844 413.125 467.457031 412.609375 467.4375 C 412.371094 467.425781 412.128906 467.410156 411.890625 467.386719 C 412.574219 467.492188 412.652344 467.5 412.136719 467.410156 C 409.511719 466.933594 406.878906 468.101562 406.125 470.835938 C 405.46875 473.234375 406.929688 476.367188 409.554688 476.84375 Z M 409.554688 476.84375 " fill-opacity="1" fill-rule="nonzero"/><path fill="#fab43b" d="M 466.738281 446.976562 C 473.722656 445.578125 493.285156 434.402344 503.066406 428.8125 " fill-opacity="1" fill-rule="nonzero"/><path fill="#fab43b" d="M 468.003906 451.699219 C 470.773438 451.117188 473.429688 449.886719 476.003906 448.753906 C 479.441406 447.246094 482.789062 445.535156 486.113281 443.796875 C 492.675781 440.367188 499.113281 436.703125 505.542969 433.03125 C 507.855469 431.707031 508.621094 428.613281 507.285156 426.335938 C 505.925781 424.015625 502.902344 423.269531 500.589844 424.59375 C 494.300781 428.1875 488 431.757812 481.59375 435.132812 C 478.367188 436.835938 475.105469 438.480469 471.785156 439.992188 C 471.421875 440.15625 471.058594 440.316406 470.695312 440.476562 C 470.476562 440.574219 469.261719 441.085938 470.515625 440.5625 C 469.882812 440.828125 469.242188 441.074219 468.597656 441.3125 C 467.578125 441.691406 466.535156 442.027344 465.472656 442.253906 C 462.859375 442.800781 461.351562 445.773438 462.011719 448.242188 C 462.730469 450.921875 465.394531 452.25 468.003906 451.699219 Z M 468.003906 451.699219 " fill-opacity="1" fill-rule="nonzero"/><path fill="#fab43b" d="M 526.820312 409.25 C 535.203125 402.261719 546.382812 392.480469 553.367188 382.699219 " fill-opacity="1" fill-rule="nonzero"/><path fill="#fab43b" d="M 530.296875 412.6875 C 540.234375 404.402344 550 395.691406 557.605469 385.144531 C 559.164062 382.980469 557.945312 379.695312 555.8125 378.464844 C 553.332031 377.03125 550.691406 378.09375 549.132812 380.253906 C 542.28125 389.761719 532.535156 398.140625 523.34375 405.808594 C 521.296875 407.515625 521.621094 410.988281 523.378906 412.726562 C 525.410156 414.730469 528.25 414.398438 530.296875 412.6875 Z M 530.296875 412.6875 " fill-opacity="1" fill-rule="nonzero"/><path fill="#fab43b" d="M 571.535156 354.753906 C 578.519531 347.769531 588.300781 339.382812 596.683594 331 " fill-opacity="1" fill-rule="nonzero"/><path fill="#fab43b" d="M 575.011719 358.195312 C 583.179688 350.054688 591.992188 342.585938 600.160156 334.441406 C 604.625 329.988281 597.683594 323.097656 593.207031 327.5625 C 585.039062 335.707031 576.226562 343.171875 568.054688 351.316406 C 563.589844 355.765625 570.535156 362.65625 575.011719 358.195312 Z M 575.011719 358.195312 " fill-opacity="1" fill-rule="nonzero"/><g clip-path="url(#3422a41726)"><path fill="#fab43b" d="M 577.820312 208.855469 L 621.136719 239.59375 L 809.769531 128.585938 Z M 577.820312 208.855469 " fill-opacity="1" fill-rule="nonzero"/></g><g clip-path="url(#cafc57767a)"><path fill="#fab43b" d="M 665.851562 263.347656 L 745.496094 291.441406 L 809.769531 128.585938 Z M 665.851562 263.347656 " fill-opacity="1" fill-rule="nonzero"/></g><g clip-path="url(#72dbdabe19)"><path fill="#e6a32d" d="M 621.136719 239.59375 L 637.902344 324.132812 L 665.851562 263.347656 L 809.769531 128.585938 Z M 621.136719 239.59375 " fill-opacity="1" fill-rule="nonzero"/></g></svg>