<svg width="224" height="219" viewBox="0 0 224 219" fill="none" xmlns="http://www.w3.org/2000/svg">
<path fill-rule="evenodd" clip-rule="evenodd" d="M209.9 157.801V105.301C210.1 47.3006 163.3 0.200639 105.3 0.000638643C47.3 -0.199361 0.2 46.6006 0 104.601C0 104.901 0 105.101 0 105.401C0 105.501 21 105.501 21 105.401C21 59.0006 58.6 21.4006 105 21.4006C151.4 21.4006 189 59.0006 189 105.401V157.901H209.9V157.801Z" fill="#7C7C7B"/>
<path d="M105 132.001L87.0999 114.101V87.0006L105 104.901L145.7 64.2006C123.2 41.8006 86.8 41.8006 64.4 64.3006C42 86.8006 41.9999 123.201 64.4999 145.601C86.9999 168.001 123.4 168.001 145.8 145.501C163 128.301 167.5 102.101 157 80.1006L105 132.001Z" fill="#EC660B"/>
<path d="M140.1 209.601C134.9 208.001 133.8 203.501 134.1 198.501H141.7C141.7 202.001 141.8 204.901 146 204.901C148.6 204.901 149.8 203.301 149.8 200.801C149.8 194.301 134.6 193.901 134.6 183.101C134.6 177.401 137.3 172.901 146.5 172.901C153.9 172.901 157.5 176.201 157 183.801H149.6C149.6 181.101 149.1 178.301 146.1 178.301C144.2 178.101 142.4 179.501 142.2 181.401C142.2 181.701 142.2 181.901 142.2 182.201C142.2 189.101 157.5 188.501 157.5 199.801C157.5 206.101 154.4 208.601 150.7 209.601H140.1Z" fill="#7C7C7B"/>
<path d="M175.9 184.601C176 181.201 175.4 178.301 171.4 178.301C166.7 178.301 166.7 184.701 166.7 191.701C166.7 203.001 167.8 205.001 172.1 205.001C173.4 205.001 174.7 204.701 175.9 204.301V196.301H171.8V190.701H183.5V209.001C182.7 209.201 181.4 209.401 180 209.601H167C160 207.901 159 202.301 159 191.301C159 182.201 159.5 172.901 171.8 172.901C179.2 172.901 183.8 177.101 183.4 184.601H175.9Z" fill="#7C7C7B"/>
<path d="M197.8 172.901C204.4 172.901 208 175.501 208.5 181.301V183.801H201.1C201.1 181.201 200.4 178.301 197.4 178.301C195.5 178.101 193.7 179.501 193.5 181.401C193.5 181.701 193.5 181.901 193.5 182.201C193.5 188.501 206.5 188.501 208.5 197.401V202.601C208 206.101 205.4 208.901 201.9 209.601H191.3C186.1 208.001 185 203.501 185.3 198.501H192.9C192.9 202.001 193.1 204.901 197.2 204.901C199.8 204.901 201 203.301 201 200.801C201 194.301 185.7 193.901 185.7 183.101C185.8 177.401 188.5 172.901 197.8 172.901Z" fill="#7C7C7B"/>
<path d="M111.3 209.601H223.4V211.001H111.3V209.601Z" fill="#EC660B"/>
<path d="M208.4 166.201H209.9V218.501H208.4V166.201Z" fill="#EC660B"/>
<path d="M1.29995 113.1L1.19995 111.1L17.2 110L17.2999 112L1.29995 113.1Z" fill="#EC660B" stroke="#EC660B" stroke-width="1.4805"/>
<path d="M6.59992 118.401L6.09992 118.501C4.69992 118.501 3.59992 119.701 3.59992 121.101C3.59992 121.301 3.59992 121.401 3.69992 121.601C3.99992 123.201 4.79992 124.301 6.69992 124.001C10.1999 123.401 8.69992 116.401 13.3999 115.601C16.1999 115.101 17.9999 116.901 18.4999 119.501C18.9999 122.401 17.7999 124.201 14.5999 124.601L14.2999 122.501C15.9999 122.201 17.0999 121.501 16.7999 119.601C16.6999 118.401 15.6999 117.401 14.3999 117.501C14.2999 117.501 14.1999 117.501 13.9999 117.601C10.4999 118.201 12.1999 125.201 7.19992 126.001C3.89992 126.501 2.39992 124.401 1.99992 121.801C1.19992 117.101 4.79992 116.601 6.29992 116.401L6.59992 118.401Z" fill="#EC660B" stroke="#EC660B" stroke-width="1.4805"/>
<path d="M9.8 129.4L14.8 127.8C17.9 126.9 20.3 127.8 21.3 131.1C22.3 134.3 20.8 136.5 17.8 137.5L12.8 139.1C8.6 140.4 6.4 139.4 5.4 136.1C4.3 132.8 5.5 130.7 9.8 129.4ZM12 137L17.2 135.4C20.4 134.4 19.8 132.2 19.6 131.6C19.4 131 18.6 128.8 15.4 129.8L10.2 131.4C6.8 132.4 6.3 133.7 6.9 135.5C7.5 137.3 8.7 138.1 12 137Z" fill="#EC660B" stroke="#EC660B" stroke-width="1.4805"/>
<path d="M12.6999 153.201L11.7999 151.401L23.5999 145.501L21.1999 144.101L22.8999 143.201C23.7999 143.801 24.6999 144.301 25.6999 144.701L26.4999 146.301L12.6999 153.201Z" fill="#EC660B" stroke="#EC660B" stroke-width="1.4805"/>
<path d="M17.8999 155L19.3999 154.1L30.0999 152.5L31.4999 154.801L23.0999 160.1L24.0999 161.6L22.5999 162.5L21.5999 161L18.3999 163L17.3999 161.4L20.5999 159.4L17.8999 155ZM22.0999 158.4L28.8999 154.1L20.2999 155.6L22.0999 158.4Z" fill="#EC660B" stroke="#EC660B" stroke-width="1.4805"/>
<path d="M32.4 168.7C29.3 171.2 26.2 173.7 23.6 170.4C21 167.1 24.1 164.7 27.2 162.2C30.4 159.6 33.4 157.1 36.1 160.4C38.8 163.7 35.6 166.1 32.4 168.7ZM28.2 164C26.2 165.6 23.5 167.5 24.9 169.3C26.3 171.1 28.8 168.9 30.8 167.3C34 164.7 36 163.1 34.7 161.5C33.4 159.9 31.4 161.5 28.2 164Z" fill="#EC660B" stroke="#EC660B" stroke-width="1.4805"/>
<path d="M40 176.5C37.2 179.3 34.4 182.2 31.4 179.2C28.4 176.2 31.3 173.5 34.1 170.6C37 167.7 39.7 164.9 42.7 167.9C45.7 170.9 43 173.6 40 176.5ZM35.3 172.4C33.5 174.2 31.1 176.4 32.7 178C34.3 179.6 36.5 177.2 38.3 175.3C41.2 172.4 43 170.5 41.5 169.1C40.1 167.6 38.2 169.4 35.3 172.4Z" fill="#EC660B" stroke="#EC660B" stroke-width="1.4805"/>
<path d="M41.2999 187.401L39.7 186.101L47.9 175.801L45.1 175.601L46.2999 174.101C47.3999 174.201 48.4 174.301 49.5 174.301L50.9 175.401L41.2999 187.401Z" fill="#EC660B" stroke="#EC660B" stroke-width="1.4805"/>
<path d="M38.6001 42.2007L38.8 42.4006C39.4 43.1006 40.5 43.2007 41.2 42.7007C41.3 42.6007 41.4001 42.6006 41.4001 42.5006C42.1001 42.0006 42.3001 40.9007 41.7001 40.2007C41.6001 40.1007 41.5001 40.0006 41.4001 39.9006C39.7001 38.3006 36.6001 41.9007 34.2001 39.7007C33.0001 38.7007 32.9001 36.9007 34.0001 35.7007C34.1001 35.6007 34.2 35.5006 34.3 35.4006C35.1 34.2006 36.8001 33.9006 38.0001 34.8006C38.2001 35.0006 38.5001 35.2006 38.6001 35.4006L37.6001 36.4006C36.8001 35.6006 36.0001 35.3007 35.1001 36.2007C34.5001 36.7007 34.4001 37.7006 34.9001 38.3006C35.0001 38.4006 35.0001 38.4006 35.1001 38.5006C36.8001 40.1006 39.9 36.4006 42.3 38.8006C43.9 40.4006 43.4001 42.0006 42.1001 43.3006C39.9001 45.6006 38.2001 43.9007 37.5001 43.2007L38.6001 42.2007Z" fill="white" stroke="white" stroke-width="0.2961" stroke-miterlimit="3.8637"/>
<path d="M42.5001 28.1007L43.5001 27.2007L45.6001 34.1007L48.3001 37.2007L47.3001 38.1007L44.6001 35.0007L38.1001 31.9007L39.3001 30.9007L44.3001 33.4007L42.5001 28.1007Z" fill="white" stroke="white" stroke-width="0.2961" stroke-miterlimit="3.8637"/>
<path d="M50.6001 31.301L50.8001 31.601C51.2001 32.401 52.3001 32.701 53.1001 32.301C53.2001 32.201 53.3001 32.201 53.4001 32.101C54.2001 31.701 54.5001 30.701 54.1001 29.901C54.0001 29.801 54.0001 29.701 53.9001 29.601C52.5001 27.701 48.8001 30.701 46.9001 28.101C45.9001 26.901 46.2001 25.101 47.4001 24.101C47.5001 24.001 47.6001 23.901 47.7001 23.901C48.7001 22.901 50.4001 22.901 51.4001 24.001C51.6001 24.201 51.8001 24.501 51.9001 24.701L50.7001 25.501C50.0001 24.501 49.3001 24.101 48.2001 24.901C47.5001 25.301 47.2001 26.201 47.6001 26.901C47.6001 27.001 47.7001 27.001 47.7001 27.101C49.1001 29.001 52.8001 25.901 54.7001 28.701C56.0001 30.501 55.2001 32.001 53.7001 33.001C51.2001 34.901 49.8001 32.901 49.2001 32.101L50.6001 31.301Z" fill="white" stroke="white" stroke-width="0.2961" stroke-miterlimit="3.8637"/>
<path d="M58.2001 17.6006L58.8001 18.6006L56.4001 20.0006L61.2001 28.2006L60.0001 28.9006L55.2001 20.7006L52.8001 22.1006L52.2001 21.1006L58.2001 17.6006Z" fill="white" stroke="white" stroke-width="0.2961" stroke-miterlimit="3.8637"/>
<path d="M64.8001 26.2006L60.2001 16.5006L65.2001 14.1006L65.7001 15.2006L62.0001 17.0006L63.5001 20.1006L67.0001 18.5006L67.5001 19.6006L64.0001 21.2006L65.6001 24.6006L69.4001 22.8006L69.9001 23.9006L64.8001 26.2006Z" fill="white" stroke="white" stroke-width="0.2961" stroke-miterlimit="3.8637"/>
<path d="M72.7001 22.6008L71.5001 23.0008L68.1001 12.9008L70.2001 12.2008L75.6001 19.9008L75.3001 10.5008L77.4001 9.80078L80.8001 19.9008L79.5001 20.3008L76.5001 11.3008L76.7001 21.3008L75.5001 21.7008L69.7001 13.6008L72.7001 22.6008Z" fill="white" stroke="white" stroke-width="0.2961" stroke-miterlimit="3.8637"/>
<path d="M89.9001 10.301C89.9001 9.80096 89.7001 9.20096 89.3001 8.80096C88.9001 8.60096 88.5001 8.50097 88.0001 8.50097C87.3001 8.50097 86.8001 9.00097 86.5001 9.60097C86.5001 9.70097 86.3001 10.001 86.5001 11.801L87.0001 14.601C87.4001 17.201 88.3001 17.401 89.4001 17.201C89.8001 17.101 91.0001 16.801 90.7001 14.701L92.1001 14.501C92.7001 17.801 90.4001 18.201 89.7001 18.301C88.4001 18.501 86.4001 18.801 85.7001 14.701L85.2001 11.701C84.7001 8.70097 85.9001 7.70096 88.0001 7.30096C90.1001 6.90096 91.1001 7.90097 91.3001 10.001L89.9001 10.301Z" fill="white" stroke="white" stroke-width="0.2961" stroke-miterlimit="3.8637"/>
<path d="M94.7001 17.5009L93.9001 6.80087L99.4001 6.40088L99.5001 7.60088L95.4001 7.90088L95.6001 11.3009L99.4001 11.0009L99.5001 12.2009L95.7001 12.5009L96.0001 16.2009L100.2 15.9009L100.3 17.1009L94.7001 17.5009Z" fill="white" stroke="white" stroke-width="0.2961" stroke-miterlimit="3.8637"/>
<path d="M103.4 12.1008L103.3 17.0008H101.9L102 6.30083H105.7C107 6.20083 108.2 7.20083 108.2 8.60083C108.2 8.70083 108.2 8.90084 108.2 9.00084C108.3 10.2008 107.4 11.3008 106.2 11.4008C107.4 11.6008 107.9 12.0008 107.9 14.2008C107.9 15.1008 108 16.1008 108.2 17.0008H106.8C106.5 15.8008 106.4 14.6008 106.4 13.4008C106.4 12.6008 105.8 12.0008 105 12.0008C104.9 12.0008 104.9 12.0008 104.8 12.0008L103.4 12.1008ZM103.5 11.0008H105.5C106.5 11.0008 107 10.2008 107 9.20083C107.1 8.40083 106.5 7.70083 105.8 7.60083C105.7 7.60083 105.7 7.60083 105.6 7.60083H103.5V11.0008Z" fill="white" stroke="white" stroke-width="0.2961" stroke-miterlimit="3.8637"/>
<path d="M117.2 7.10059L117.1 8.30058L114.3 8.10059L113.5 17.6006L112.1 17.5006L112.9 8.00059L110.1 7.80058L110.2 6.60059L117.2 7.10059Z" fill="white" stroke="white" stroke-width="0.2961" stroke-miterlimit="3.8637"/>
<path d="M119.2 18.2009L117.9 18.0009L119.4 7.40088L120.7 7.60088L119.2 18.2009Z" fill="white" stroke="white" stroke-width="0.2961" stroke-miterlimit="3.8637"/>
<path d="M121.6 18.6006L123.7 8.10059L128.9 9.10059L128.7 10.3006L124.8 9.50059L124.1 12.9006L127.8 13.6006L127.6 14.8006L123.9 14.1006L122.9 18.9006L121.6 18.6006Z" fill="white" stroke="white" stroke-width="0.2961" stroke-miterlimit="3.8637"/>
<path d="M129.7 20.4008L128.4 20.1008L131.1 9.80078L132.4 10.1008L129.7 20.4008Z" fill="white" stroke="white" stroke-width="0.2961" stroke-miterlimit="3.8637"/>
<path d="M139.1 15.2011C139.3 14.7011 139.4 14.2011 139.3 13.6011C139.1 13.2011 138.7 12.9011 138.3 12.8011C137.7 12.5011 137 12.6011 136.5 13.1011C136.4 13.2011 136.1 13.4011 135.5 15.1011L134.6 17.8011C133.8 20.3011 134.5 20.9011 135.5 21.2011C135.9 21.3011 137.1 21.6011 137.8 19.6011L139.1 20.1011C138.1 23.3011 135.8 22.6011 135.2 22.3011C133.9 21.9011 132 21.1011 133.4 17.2011L134.4 14.3011C135.4 11.4011 136.9 11.1011 138.9 11.7011C140.9 12.4011 141.3 13.7011 140.5 15.6011L139.1 15.2011Z" fill="white" stroke="white" stroke-width="0.2961" stroke-miterlimit="3.8637"/>
<path d="M146.6 15.1006L148.2 15.8006L146.9 27.0006L145.5 26.4006L145.9 23.8006L142.1 22.1006L140.3 24.1006L139 23.5006L146.6 15.1006ZM146.8 16.6006L142.9 21.1006L146 22.5006L146.8 16.6006Z" fill="white" stroke="white" stroke-width="0.2961" stroke-miterlimit="3.8637"/>
<path d="M157.6 20.9009L157 21.9009L154.6 20.5009L149.8 28.7009L148.6 28.0009L153.4 19.8009L151 18.4009L151.6 17.4009L157.6 20.9009Z" fill="white" stroke="white" stroke-width="0.2961" stroke-miterlimit="3.8637"/>
<path d="M154.7 31.9008L153.6 31.1008L159.6 22.3008L160.7 23.1008L154.7 31.9008Z" fill="white" stroke="white" stroke-width="0.2961" stroke-miterlimit="3.8637"/>
<path d="M159.2 30.301L161.4 27.601C162.3 26.101 164.2 25.701 165.7 26.601C165.9 26.701 166.1 26.9009 166.2 27.0009C167.6 28.0009 168 29.901 167 31.301C166.9 31.501 166.7 31.701 166.5 31.801L164.3 34.5009C162.4 36.8009 160.8 37.001 159.1 35.601C157.4 34.201 157.4 32.601 159.2 30.301ZM163.3 33.701L165.6 30.901C167 29.201 165.9 28.101 165.5 27.901C165.2 27.601 163.9 26.701 162.5 28.401L160.2 31.201C158.7 33.001 158.9 33.901 159.9 34.701C160.9 35.601 161.9 35.501 163.3 33.701Z" fill="white" stroke="white" stroke-width="0.2961" stroke-miterlimit="3.8637"/>
<path d="M176.6 37.1008L168.9 44.5008L167.6 43.2008L171.4 33.7008L164.7 40.1008L163.9 39.2008L171.6 31.8008L172.9 33.2008L169.2 42.5008L175.8 36.2008L176.6 37.1008Z" fill="white" stroke="white" stroke-width="0.2961" stroke-miterlimit="3.8637"/>
</svg>
