<svg width="224" height="219" viewBox="0 0 224 219" fill="none" xmlns="http://www.w3.org/2000/svg">
<path fill-rule="evenodd" clip-rule="evenodd" d="M209.9 157.801V105.301C210.1 47.3006 163.3 0.200639 105.3 0.000638643C47.3 -0.199361 0.2 46.6006 0 104.601C0 104.901 0 105.101 0 105.401C0 105.501 21 105.501 21 105.401C21 59.0006 58.6 21.4006 105 21.4006C151.4 21.4006 189 59.0006 189 105.401V157.901H209.9V157.801Z" fill="#7C7C7B"/>
<path d="M105 132.001L87.1 114.101V87.0006L105 104.901L145.7 64.2006C123.2 41.8006 86.9 41.8006 64.4 64.3006C41.9 86.8006 42 123.101 64.5 145.601C87 168.001 123.3 168.001 145.8 145.501C163 128.301 167.5 102.101 157 80.1006L105 132.001Z" fill="#EC660B"/>
<path d="M140.1 209.601C134.9 208.001 133.8 203.501 134.1 198.501H141.7C141.7 201.901 141.8 204.901 146 204.901C148.6 204.901 149.8 203.301 149.8 200.801C149.8 194.301 134.6 193.901 134.6 183.101C134.6 177.401 137.3 172.901 146.5 172.901C153.9 172.901 157.5 176.201 157 183.801H149.6C149.6 181.101 149.1 178.401 146.1 178.401C144.2 178.201 142.4 179.601 142.2 181.501C142.2 181.801 142.2 182.001 142.2 182.301C142.2 189.201 157.5 188.601 157.5 199.901C157.5 206.201 154.4 208.701 150.7 209.701L140.1 209.601Z" fill="#7C7C7B"/>
<path d="M175.9 184.601C176 181.201 175.4 178.301 171.4 178.301C166.7 178.301 166.7 184.701 166.7 191.701C166.7 203.001 167.8 205.001 172.1 205.001C173.4 205.001 174.7 204.701 175.9 204.301V196.301H171.8V190.701H183.5V209.001C182.7 209.201 181.4 209.401 180 209.601H167C160 207.901 159 202.301 159 191.301C159 182.201 159.5 172.901 171.8 172.901C179.2 172.901 183.8 177.101 183.4 184.601H175.9Z" fill="#7C7C7B"/>
<path d="M197.8 172.901C204.4 172.901 208 175.501 208.5 181.301V183.801H201.1C201.1 181.201 200.4 178.401 197.4 178.401C195.5 178.201 193.7 179.601 193.5 181.501C193.5 181.801 193.5 182.001 193.5 182.301C193.5 188.601 206.5 188.601 208.5 197.501V202.701C208 206.201 205.4 209.001 201.9 209.701H191.3C186.1 208.101 185 203.601 185.3 198.601H192.9C192.9 202.001 193.1 205.001 197.2 205.001C199.8 205.001 201 203.401 201 200.901C201 194.401 185.7 194.001 185.7 183.201C185.8 177.401 188.5 172.901 197.8 172.901Z" fill="#7C7C7B"/>
<path d="M111.4 209.601H223.4V211.001H111.4V209.601Z" fill="#EC660B"/>
<path d="M208.5 166.201H209.9V218.501H208.5V166.201Z" fill="#EC660B"/>
<path d="M1.40005 113.801L1.30005 111.801L17.3 110.601L17.4001 112.601L1.40005 113.801Z" fill="#EC660B" stroke="#EC660B" stroke-width="1.4805"/>
<path d="M6.70012 118.7L6.20012 118.8C4.80012 118.8 3.70012 120 3.70012 121.4C3.70012 121.6 3.70012 121.7 3.80012 121.9C4.10012 123.5 4.90012 124.6 6.80012 124.3C10.3001 123.7 8.70013 116.7 13.5001 115.9C16.3001 115.4 18.1001 117.2 18.6001 119.8C19.1001 122.7 17.9001 124.5 14.7001 124.9L14.4001 122.8C16.1001 122.5 17.2001 121.8 16.9001 119.9C16.8001 118.7 15.8001 117.7 14.5001 117.8C14.4001 117.8 14.3001 117.8 14.1001 117.9C10.6001 118.5 12.3001 125.5 7.30012 126.3C4.00012 126.9 2.50014 124.7 2.10014 122.1C1.30014 117.4 4.90013 116.9 6.40013 116.6L6.70012 118.7Z" fill="#EC660B" stroke="#EC660B" stroke-width="1.4805"/>
<path d="M9.70002 129.001L14.7 127.501C17.8 126.601 20.2 127.501 21.2 130.801C22.2 134.101 20.7 136.201 17.7 137.201L12.7 138.701C8.50002 140.001 6.30003 138.901 5.30003 135.701C4.20003 132.401 5.40002 130.301 9.70002 129.001ZM11.9 136.701L17.1 135.101C20.3 134.101 19.7 131.901 19.6 131.301C19.4 130.701 18.6 128.501 15.4 129.501L10.2 131.101C6.80002 132.101 6.30003 133.401 6.90003 135.201C7.40003 137.001 8.60003 137.701 11.9 136.701Z" fill="#EC660B" stroke="#EC660B" stroke-width="1.4805"/>
<path d="M20.8001 152.201C17.2001 154.001 13.7001 155.801 11.8001 152.101C10.8001 150.301 11.4001 148.101 13.2001 147.101C13.4001 147.001 13.5001 146.901 13.7001 146.901L14.6001 148.701C13.6001 149.201 12.7001 150.101 13.3001 151.301C14.2001 153.101 16.2001 152.201 19.7001 150.401C18.6001 150.401 17.6001 149.701 17.2001 148.701C16.6001 147.601 16.2001 145.301 20.0001 143.401C23.1001 141.801 25.2001 143.101 26.1001 144.901C28.0001 148.701 24.5001 150.301 20.8001 152.201ZM21.0001 145.101C19.6001 145.801 18.3001 146.801 19.1001 148.401C19.9001 150.001 21.5001 149.501 22.9001 148.801C24.2001 148.201 25.6001 147.101 24.8001 145.501C24.0001 144.001 22.2001 144.501 21.0001 145.101Z" fill="#EC660B" stroke="#EC660B" stroke-width="1.4805"/>
<path d="M26.9001 161.701C23.5001 163.901 20.3001 166.101 18.0001 162.601C15.7001 159.101 19.0001 157.001 22.4001 154.701C25.9001 152.401 29.1001 150.201 31.4001 153.801C33.7001 157.401 30.4001 159.501 26.9001 161.701ZM23.1001 156.701C20.9001 158.101 18.1001 159.801 19.4001 161.701C20.7001 163.601 23.3001 161.701 25.5001 160.201C29.0001 157.901 31.1001 156.501 29.9001 154.701C28.7001 152.901 26.6001 154.401 23.1001 156.701Z" fill="#EC660B" stroke="#EC660B" stroke-width="1.4805"/>
<path d="M34 170.401C30.9 173.001 27.8999 175.501 25.1999 172.301C22.4999 169.101 25.6 166.601 28.6 164.001C31.8 161.301 34.7 158.801 37.4 162.001C40.2 165.301 37.2 167.801 34 170.401ZM29.6999 165.901C27.6999 167.601 25.1 169.601 26.6 171.301C28.1 173.001 30.5 170.801 32.4 169.101C35.6 166.401 37.4999 164.801 36.1999 163.201C34.7999 161.601 32.7999 163.201 29.6999 165.901Z" fill="#EC660B" stroke="#EC660B" stroke-width="1.4805"/>
<path d="M34.5 181.601L33 180.201L42.1 170.701L39.4 170.201L40.7 168.801C41.7 169.001 42.8 169.201 43.9 169.301L45.2 170.501L34.5 181.601Z" fill="#EC660B" stroke="#EC660B" stroke-width="1.4805"/>
<path d="M38.6001 42.2006L38.8 42.4006C39.4 43.1006 40.4 43.2006 41.2 42.7006C41.3 42.6006 41.4001 42.6006 41.4001 42.5006C42.1001 42.0006 42.3 40.9006 41.7 40.2006C41.6 40.1006 41.5001 40.0006 41.4001 39.9006C39.7001 38.3006 36.6 41.9006 34.2 39.7006C33 38.7006 32.9001 36.9006 34.0001 35.7006C34.1001 35.6006 34.2 35.5006 34.3 35.4006C35.1 34.2006 36.8001 33.9006 38.0001 34.8006C38.2001 35.0006 38.5001 35.2006 38.6001 35.4006L37.6001 36.4006C36.8001 35.6006 36.0001 35.3006 35.1001 36.2006C34.5001 36.7006 34.4001 37.7006 34.9001 38.3006C35.0001 38.4006 35.0001 38.4006 35.1001 38.5006C36.8001 40.1006 39.9 36.4006 42.3 38.8006C43.9 40.4006 43.4001 42.0006 42.1001 43.3006C39.9001 45.6006 38.2001 43.9006 37.5001 43.2006L38.6001 42.2006Z" fill="white" stroke="white" stroke-width="0.2961" stroke-miterlimit="3.8637"/>
<path d="M42.5001 28.1007L43.5001 27.2007L45.6001 34.1007L48.3001 37.2007L47.3001 38.1007L44.6001 35.0007L38.1001 31.9007L39.3001 30.9007L44.3001 33.4007L42.5001 28.1007Z" fill="white" stroke="white" stroke-width="0.2961" stroke-miterlimit="3.8637"/>
<path d="M50.6001 31.301L50.8001 31.601C51.2001 32.401 52.3001 32.701 53.1001 32.301C53.2001 32.201 53.3001 32.201 53.4001 32.101C54.2001 31.701 54.5001 30.701 54.1001 29.901C54.0001 29.801 54.0001 29.701 53.9001 29.601C52.5001 27.701 48.8001 30.701 46.9001 28.101C45.9001 26.901 46.2001 25.101 47.4001 24.101C47.5001 24.001 47.6001 23.901 47.7001 23.901C48.7001 22.901 50.4001 22.901 51.4001 24.001C51.6001 24.201 51.8001 24.501 51.9001 24.701L50.9001 25.501C50.2001 24.501 49.5001 24.101 48.4001 24.901C47.7001 25.301 47.4001 26.201 47.8001 26.901C47.8001 27.001 47.9001 27.001 47.9001 27.101C49.3001 29.001 53.0001 25.901 54.9001 28.701C56.2001 30.501 55.4001 32.001 53.9001 33.001C51.4001 34.901 49.9001 32.901 49.4001 32.101L50.6001 31.301Z" fill="white" stroke="white" stroke-width="0.2961" stroke-miterlimit="3.8637"/>
<path d="M58.2 17.501L58.8 18.501L56.4 19.901L61.2 28.101L60 28.801L55.2 20.601L52.8 22.001L52.2 21.001L58.2 17.501Z" fill="white" stroke="white" stroke-width="0.2961" stroke-miterlimit="3.8637"/>
<path d="M64.9001 26.101L60.3 16.401L65.3 14.001L65.8 15.101L62.0001 16.901L63.5001 20.001L67.0001 18.401L67.5001 19.501L64.0001 21.101L65.6001 24.501L69.4001 22.701L69.9001 23.801L64.9001 26.101Z" fill="white" stroke="white" stroke-width="0.2961" stroke-miterlimit="3.8637"/>
<path d="M72.8 22.6008L71.6 23.0008L68.2 12.9008L70.3 12.2008L75.7 19.9008L75.4 10.5008L77.5 9.80078L80.9 19.9008L79.6 20.3008L76.6 11.3008L76.8 21.3008L75.6 21.7008L69.8 13.6008L72.8 22.6008Z" fill="white" stroke="white" stroke-width="0.2961" stroke-miterlimit="3.8637"/>
<path d="M89.9001 10.2008C89.9001 9.70078 89.7001 9.10078 89.3001 8.70078C88.9001 8.50078 88.5002 8.40079 88.0002 8.40079C87.3002 8.40079 86.8002 8.90078 86.5002 9.50078C86.5002 9.60078 86.3002 9.90078 86.5002 11.7008L87.0002 14.5008C87.4002 17.1008 88.3001 17.3008 89.4001 17.1008C89.8001 17.0008 91.0001 16.7008 90.7001 14.6008L92.1002 14.4008C92.7002 17.7008 90.4001 18.1008 89.7001 18.2008C88.4001 18.4008 86.4001 18.7008 85.7001 14.6008L85.2001 11.6008C84.7001 8.60079 85.9002 7.60078 88.0002 7.20078C90.1002 6.90078 91.1001 7.80079 91.3001 9.90079L89.9001 10.2008Z" fill="white" stroke="white" stroke-width="0.2961" stroke-miterlimit="3.8637"/>
<path d="M94.7001 17.4008L93.9001 6.70078L99.4001 6.30078L99.5002 7.50078L95.4001 7.80078L95.6002 11.2008L99.4001 10.9008L99.5002 12.1008L95.7001 12.4008L96.0002 16.1008L100.2 15.8008L100.3 17.0008L94.7001 17.4008Z" fill="white" stroke="white" stroke-width="0.2961" stroke-miterlimit="3.8637"/>
<path d="M103.5 12.1008L103.4 17.0008H102L102.1 6.30083H105.8C107.1 6.20083 108.3 7.20083 108.3 8.60083C108.3 8.70083 108.3 8.90083 108.3 9.00083C108.4 10.2008 107.5 11.3008 106.3 11.4008C107.5 11.6008 108 12.0008 108 14.2008C108 15.1008 108.1 16.1008 108.3 17.0008H106.9C106.6 15.8008 106.5 14.6008 106.5 13.4008C106.5 12.6008 105.9 12.0008 105.1 12.0008C105 12.0008 105 12.0008 104.9 12.0008L103.5 12.1008ZM103.5 10.9008H105.5C106.5 10.9008 107 10.1008 107 9.10083C107.1 8.30083 106.5 7.60083 105.8 7.50083C105.7 7.50083 105.7 7.50083 105.6 7.50083H103.5V10.9008Z" fill="white" stroke="white" stroke-width="0.2961" stroke-miterlimit="3.8637"/>
<path d="M117.2 7.10059L117.1 8.30059L114.3 8.10059L113.5 17.6006L112.1 17.5006L112.9 8.00059L110.1 7.80059L110.2 6.60059L117.2 7.10059Z" fill="white" stroke="white" stroke-width="0.2961" stroke-miterlimit="3.8637"/>
<path d="M119.2 18.2009L117.9 18.0009L119.4 7.40088L120.7 7.60088L119.2 18.2009Z" fill="white" stroke="white" stroke-width="0.2961" stroke-miterlimit="3.8637"/>
<path d="M121.6 18.501L123.7 8.00098L128.9 9.00098L128.7 10.201L124.8 9.40098L124.1 12.801L127.8 13.501L127.6 14.701L123.9 14.001L122.9 18.801L121.6 18.501Z" fill="white" stroke="white" stroke-width="0.2961" stroke-miterlimit="3.8637"/>
<path d="M129.7 20.3007L128.4 20.0007L131.1 9.70068L132.4 10.0007L129.7 20.3007Z" fill="white" stroke="white" stroke-width="0.2961" stroke-miterlimit="3.8637"/>
<path d="M139.1 15.2006C139.3 14.7006 139.4 14.2006 139.3 13.6006C139.1 13.2006 138.7 12.9006 138.3 12.8006C137.7 12.5006 137 12.6006 136.5 13.1006C136.4 13.2006 136.1 13.4006 135.5 15.1006L134.6 17.8006C133.8 20.3006 134.5 20.9006 135.5 21.2006C135.9 21.3006 137.1 21.6006 137.8 19.6006L139.1 20.1006C138.1 23.3006 135.8 22.5006 135.2 22.3006C133.9 21.9006 132 21.1006 133.4 17.2006L134.4 14.3006C135.4 11.4006 136.9 11.1006 138.9 11.7006C140.9 12.3006 141.3 13.7006 140.5 15.6006L139.1 15.2006Z" fill="white" stroke="white" stroke-width="0.2961" stroke-miterlimit="3.8637"/>
<path d="M146.6 15.1011L148.2 15.8011L146.9 27.0011L145.5 26.4011L145.9 23.8011L142.2 22.1011L140.4 24.1011L139.1 23.5011L146.6 15.1011ZM146.8 16.6011L142.9 21.1011L146 22.5011L146.8 16.6011Z" fill="white" stroke="white" stroke-width="0.2961" stroke-miterlimit="3.8637"/>
<path d="M157.6 20.9009L157 21.9009L154.6 20.5009L149.8 28.7009L148.6 28.0009L153.4 19.8009L151 18.4009L151.6 17.4009L157.6 20.9009Z" fill="white" stroke="white" stroke-width="0.2961" stroke-miterlimit="3.8637"/>
<path d="M154.7 31.9008L153.6 31.1008L159.6 22.3008L160.7 23.1008L154.7 31.9008Z" fill="white" stroke="white" stroke-width="0.2961" stroke-miterlimit="3.8637"/>
<path d="M159.3 30.301L161.5 27.601C162.4 26.101 164.3 25.701 165.8 26.601C166 26.701 166.2 26.9009 166.4 27.0009C167.8 28.0009 168.2 29.901 167.2 31.301C167.1 31.501 166.9 31.701 166.7 31.801L164.5 34.5009C162.6 36.8009 161 37.001 159.3 35.601C157.6 34.201 157.4 32.601 159.3 30.301ZM163.3 33.7009L165.6 30.9009C167 29.2009 165.9 28.1009 165.5 27.9009C165.2 27.6009 163.9 26.7009 162.5 28.4009L160.2 31.2009C158.7 33.0009 158.9 33.9009 159.9 34.7009C161 35.5009 161.9 35.5009 163.3 33.7009Z" fill="white" stroke="white" stroke-width="0.2961" stroke-miterlimit="3.8637"/>
<path d="M176.6 37.1008L168.9 44.5008L167.6 43.2008L171.4 33.7008L164.7 40.1008L163.9 39.2008L171.6 31.8008L172.9 33.2008L169.2 42.5008L175.8 36.2008L176.6 37.1008Z" fill="white" stroke="white" stroke-width="0.2961" stroke-miterlimit="3.8637"/>
</svg>
